<svg viewBox="0 0 352 107" xmlns="http://www.w3.org/2000/svg" xmlns:xlink="http://www.w3.org/1999/xlink" id="Capa_1" xml:space="preserve" overflow="hidden"><g><g><g><g><path d="M25.2 100.1 25.2 93.2C28.8 92.8 31 90.7 31 82.4L30.7 6.1 49.3 6.1C68.9 6.1 72.5 15.2 72.5 33.2 72.5 36.7 72.3 39.7 71.9 42.4 71.9 42.6 71.9 42.7 71.8 42.9 71.5 44.5 71.2 45.9 70.8 47.3 70.7 47.6 70.6 48 70.5 48.3 69.2 52.1 67.1 54.9 64.2 56.9 64.1 56.9 64.1 57 64 57 63.7 57.2 63.3 57.4 63 57.6 62.7 57.8 62.4 57.9 62.1 58.1 61.9 58.2 61.7 58.3 61.4 58.4 61.1 58.6 60.7 58.7 60.3 58.8 60 58.9 59.7 59 59.5 59.1 59.4 59.2 59.3 59.2 59.1 59.2 58.9 59.3 58.7 59.3 58.5 59.4 57.9 59.6 57.3 59.7 56.6 59.9L56.6 59.9 56.5 59.9C56.1 60 55.7 60.1 55.2 60.1 55.1 60.1 55 60.1 54.9 60.1 54.7 60.1 54.6 60.2 54.4 60.2 54.2 60.2 53.9 60.3 53.7 60.3 52.3 60.5 50.8 60.6 49.1 60.7 48.9 60.7 48.8 60.7 48.6 60.7 47.9 60.7 47.2 60.7 46.5 60.7L46 60.7 45.9 78.4C45.9 98.1 42.3 99.9 25.8 99.9L25.2 99.9ZM46.2 47.2 48 47.2C53.7 47.2 56.5 43.6 56.5 36.1L56.5 30.9C56.5 22.3 51.8 20.5 47.9 20.5L46.3 20.5 46.2 47.2Z" fill="#EAB215"/><path d="M49.3 6.6C68.5 6.6 72 15.6 72 33.2 72 36.6 71.8 39.6 71.4 42.3 71.4 42.5 71.4 42.6 71.3 42.8 71.1 44.3 70.7 45.8 70.3 47.1 70.2 47.4 70.1 47.7 70 48.1 68.7 51.8 66.7 54.6 63.9 56.5 63.8 56.6 63.8 56.6 63.7 56.7 63.4 56.9 63.1 57.1 62.7 57.3 62.4 57.5 62.2 57.6 61.9 57.7 61.7 57.8 61.5 57.9 61.3 58 61 58.2 60.6 58.3 60.2 58.4 59.9 58.5 59.7 58.6 59.4 58.7L59.4 58.7 59.4 58.7C59.3 58.7 59.2 58.8 59.1 58.8 58.9 58.9 58.7 58.9 58.5 59 57.9 59.2 57.3 59.3 56.7 59.5 56.7 59.5 56.6 59.5 56.6 59.5 56.2 59.6 55.8 59.7 55.3 59.7 55.2 59.7 55.1 59.7 55 59.7 54.9 59.7 54.7 59.7 54.6 59.8 54.4 59.8 54.1 59.9 53.9 59.9 52.5 60.1 51 60.2 49.3 60.3 49.1 60.3 49 60.3 48.8 60.3 48.1 60.3 47.5 60.3 46.8 60.3L45.8 60.3 45.8 61.3 45.7 78.5C45.7 88.6 44.7 93.6 42 96.3 39.2 99.1 34.3 99.6 26.1 99.6L25.9 99.6 25.9 93.7C29.4 93.1 31.7 90.7 31.7 82.5L31.2 6.6 49.3 6.6M45.7 47.7 46.7 47.7 48 47.7C53.9 47.7 57 43.8 57 36.1L57 30.9C57 21.9 52.1 20 47.9 20L46.8 20 45.8 20 45.8 21 45.7 46.7 45.7 47.7M49.3 5.6 30.2 5.6 30.4 82.5C30.4 91.4 27.8 92.6 24.6 92.8L24.6 100.6 25.8 100.6C42.7 100.6 46.4 98.4 46.4 78.6L46.5 61.4C47.2 61.4 47.9 61.4 48.6 61.4 48.8 61.4 48.9 61.4 49.1 61.4 50.7 61.3 52.3 61.2 53.8 61 54 61 54.3 60.9 54.5 60.9 54.7 60.9 54.8 60.9 55 60.8 55.1 60.8 55.2 60.8 55.3 60.8 55.8 60.7 56.2 60.6 56.6 60.5 56.6 60.5 56.6 60.5 56.6 60.5 57.3 60.3 57.9 60.2 58.5 60 58.7 59.9 58.9 59.9 59.1 59.8 59.2 59.8 59.3 59.7 59.5 59.7 59.8 59.6 60.1 59.5 60.4 59.4 60.8 59.3 61.1 59.1 61.5 58.9 61.7 58.8 62 58.7 62.2 58.6 62.5 58.5 62.8 58.3 63.1 58.1 63.5 57.9 63.8 57.7 64.1 57.5 64.2 57.4 64.3 57.4 64.4 57.3 67.3 55.3 69.5 52.4 70.8 48.4 70.9 48.1 71 47.7 71.1 47.4 71.5 46 71.9 44.6 72.1 43 72.1 42.8 72.2 42.7 72.2 42.5 72.6 39.8 72.8 36.7 72.8 33.3 73 14.6 68.8 5.6 49.3 5.6L49.3 5.6ZM46.7 46.7 46.8 21 48 21C53.4 21 56.1 24.5 56.1 30.9L56.1 36.1C56.1 44 53 46.7 48.1 46.7L46.7 46.7 46.7 46.7Z" fill="#FFFFFF"/></g></g><g><g><path d="M85.5 99.5 85.5 61.1 72.5 61.1 72.5 99.4 56.8 99.4 56.8 62.7C66.2 60.5 71.8 56.8 74.5 44L85.5 44.1 85.5 6.1 101.2 6.1 101.2 99.5 85.5 99.5Z" fill="#1F1760"/><path d="M100.7 6.6 100.7 99 86 99 86 61.6 86 60.6 85 60.6 73 60.6 72 60.6 72 61.6 72 99 57.3 99 57.3 63.1C66.3 60.9 72.2 57 74.9 44.5L85 44.6 86 44.6 86 43.6 86 6.6 100.7 6.6M101.7 5.6 85 5.6 85 43.6 74.1 43.5C71.5 56.1 66.2 60 56.3 62.3L56.3 100 73 100 73 61.6 85 61.6 85 100 101.7 100 101.7 5.6 101.7 5.6Z" fill="#FFFFFF"/></g></g><g><path d="M22.7 100.1C6.2 100.1 2 97.4 2 77.6L2 6.1 17.6 6.1 17.3 81.6C17.3 89.3 18.8 92.6 22.6 93.2L22.6 100.1Z" fill="#1F1760"/><path d="M17.2 6.6 16.9 81.6C16.9 89.3 18.4 92.8 22.2 93.7L22.2 99.7C14.7 99.7 9.4 99 6.5 95.9 3.7 93 2.6 87.9 2.6 77.6L2.6 6.6 17.2 6.6M18.2 5.6 1.5 5.6 1.5 77.6C1.5 97.5 5.6 100.7 23 100.7L23.2 100.7 23.2 92.9C19.9 92.6 17.9 90.3 17.9 81.7L18.2 5.6 18.2 5.6Z" fill="#FFFFFF"/></g></g><g><path d="M152.9 12.1 157.6 12.1 157.6 23.6C157.6 25.9 158.7 27.2 161 27.2 163.3 27.2 164.4 25.9 164.4 23.6L164.4 12.1 169.1 12.1 169.1 23.5C169.1 28.8 165.3 31.4 160.9 31.4 156.4 31.4 152.9 28.8 152.9 23.5L152.9 12.1Z" fill="#FFFFFF"/><path d="M183.1 23C183.1 20.9 181.9 19.8 180.1 19.8 178.3 19.8 177.1 20.9 177.1 23L177.1 31.3 172.4 31.3 172.4 16 177.1 16 177.1 18C178 16.7 179.7 15.8 181.8 15.8 185.4 15.8 187.7 18.2 187.7 22.3L187.7 31.2 183 31.2 183 23Z" fill="#FFFFFF"/><path d="M190.7 11.9C190.7 10.5 191.8 9.4 193.5 9.4 195.2 9.4 196.3 10.5 196.3 11.9 196.3 13.3 195.2 14.4 193.5 14.4 191.8 14.4 190.7 13.3 190.7 11.9ZM191.1 16 195.8 16 195.8 31.2 191.1 31.2 191.1 16Z" fill="#FFFFFF"/><path d="M202.8 16 206.1 26.9 209.4 16 214.4 16 208.9 31.2 203.1 31.2 197.8 16 202.8 16Z" fill="#FFFFFF"/><path d="M223.4 31.4C218.9 31.4 215.6 28.4 215.6 23.6 215.6 18.8 218.8 15.8 223.4 15.8 227.9 15.8 231.1 18.7 231.1 23.4 231.1 23.8 231.1 24.3 231 24.8L220.3 24.8C220.5 26.8 221.7 27.7 223.2 27.7 224.5 27.7 225.3 27 225.7 26.2L230.7 26.2C230 29.2 227.2 31.4 223.4 31.4ZM220.3 22.1 226.2 22.1C226.2 20.4 224.9 19.5 223.3 19.5 221.8 19.5 220.6 20.4 220.3 22.1Z" fill="#FFFFFF"/><path d="M238.3 31.2 233.6 31.2 233.6 16 238.3 16 238.3 18.5C239.4 16.9 241.1 15.8 243.1 15.8L243.1 20.7 241.8 20.7C239.6 20.7 238.3 21.5 238.3 24.1L238.3 31.2Z" fill="#FFFFFF"/><path d="M251.7 31.4C247.6 31.4 244.8 29.1 244.6 26.2L249.3 26.2C249.4 27.3 250.4 28 251.7 28 252.9 28 253.6 27.5 253.6 26.8 253.6 24.3 245.2 26.1 245.2 20.5 245.2 17.9 247.4 15.8 251.5 15.8 255.5 15.8 257.7 18 258 21L253.6 21C253.5 20 252.7 19.3 251.3 19.3 250.2 19.3 249.6 19.7 249.6 20.5 249.6 22.9 257.9 21.2 258 26.9 257.9 29.5 255.5 31.4 251.7 31.4Z" fill="#FFFFFF"/><path d="M260.4 11.9C260.4 10.5 261.5 9.4 263.2 9.4 264.9 9.4 266 10.5 266 11.9 266 13.3 264.9 14.4 263.2 14.4 261.5 14.4 260.4 13.3 260.4 11.9ZM260.8 16 265.5 16 265.5 31.2 260.8 31.2 260.8 16Z" fill="#FFFFFF"/><path d="M274.8 15.8C276.8 15.8 278.6 16.7 279.6 18.1L279.6 11 284.3 11 284.3 31.2 279.6 31.2 279.6 29C278.7 30.4 277.1 31.4 274.8 31.4 271 31.4 268 28.3 268 23.5 268 18.8 271 15.8 274.8 15.8ZM276.2 19.8C274.4 19.8 272.8 21.1 272.8 23.5 272.8 25.9 274.4 27.3 276.2 27.3 278 27.3 279.6 26 279.6 23.5 279.6 21 278 19.8 276.2 19.8Z" fill="#FFFFFF"/><path d="M293.6 15.8C295.9 15.8 297.5 16.8 298.4 18.2L298.4 16 303.1 16 303.1 31.2 298.4 31.2 298.4 29C297.5 30.3 295.9 31.4 293.6 31.4 289.8 31.4 286.8 28.3 286.8 23.5 286.8 18.8 289.8 15.8 293.6 15.8ZM294.9 19.8C293.1 19.8 291.5 21.1 291.5 23.5 291.5 25.9 293.1 27.3 294.9 27.3 296.7 27.3 298.3 26 298.3 23.5 298.3 21 296.7 19.8 294.9 19.8Z" fill="#FFFFFF"/><path d="M312.3 15.8C314.3 15.8 316.1 16.7 317.1 18.1L317.1 11 321.8 11 321.8 31.2 317.1 31.2 317.1 29C316.2 30.4 314.6 31.4 312.3 31.4 308.5 31.4 305.5 28.3 305.5 23.5 305.5 18.8 308.5 15.8 312.3 15.8ZM313.7 19.8C311.9 19.8 310.3 21.1 310.3 23.5 310.3 25.9 311.9 27.3 313.7 27.3 315.5 27.3 317.1 26 317.1 23.5 317.1 21 315.5 19.8 313.7 19.8Z" fill="#FFFFFF"/><path d="M160.7 52.5 157.8 52.5 157.8 59.4 153 59.4 153 40.2 160.7 40.2C165.5 40.2 167.8 42.8 167.8 46.4 167.8 49.5 165.6 52.5 160.7 52.5ZM160.3 48.8C162.2 48.8 163 47.9 163 46.4 163 44.9 162.2 44 160.3 44L157.7 44 157.7 48.8 160.3 48.8Z" fill="#FFFFFF"/><path d="M177.3 59.6C172.8 59.6 169.3 56.6 169.3 51.8 169.3 47 172.8 44 177.3 44 181.8 44 185.3 47 185.3 51.8 185.3 56.6 181.8 59.6 177.3 59.6ZM177.3 55.6C179 55.6 180.6 54.4 180.6 51.8 180.6 49.2 179.1 48 177.4 48 175.7 48 174.2 49.2 174.2 51.8 174.1 54.3 175.6 55.6 177.3 55.6Z" fill="#FFFFFF"/><path d="M187.9 39.2 192.6 39.2 192.6 59.4 187.9 59.4 187.9 39.2Z" fill="#FFFFFF"/><path d="M195.6 40C195.6 38.6 196.7 37.5 198.4 37.5 200.1 37.5 201.2 38.6 201.2 40 201.2 41.4 200.1 42.5 198.4 42.5 196.7 42.6 195.6 41.4 195.6 40ZM196 44.1 200.7 44.1 200.7 59.3 196 59.3 196 44.1Z" fill="#FFFFFF"/><path d="M204.9 48 203 48 203 44.1 204.9 44.1 204.9 40.4 209.6 40.4 209.6 44.1 212.7 44.1 212.7 48 209.6 48 209.6 54.1C209.6 55 210 55.4 211 55.4L212.7 55.4 212.7 59.4 210.3 59.4C207.1 59.4 204.9 58.1 204.9 54.1L204.9 48Z" fill="#FFFFFF"/><path d="M222.2 59.6C217.7 59.6 214.4 56.6 214.4 51.8 214.4 47 217.6 44 222.2 44 226.7 44 229.9 46.9 229.9 51.6 229.9 52 229.9 52.5 229.8 53L219.1 53C219.3 55 220.5 55.9 222 55.9 223.3 55.9 224.1 55.2 224.5 54.4L229.5 54.4C228.8 57.3 226 59.6 222.2 59.6ZM225.4 36.6 225.4 40.2 218.7 43 218.7 39.8 225.4 36.6ZM219.1 50.3 225 50.3C225 48.6 223.7 47.7 222.1 47.7 220.6 47.7 219.4 48.6 219.1 50.3Z" fill="#FFFFFF"/><path d="M239.2 43.9C243.1 43.9 245.8 46 246.6 49.6L241.6 49.6C241.2 48.5 240.4 47.9 239.1 47.9 237.4 47.9 236.3 49.2 236.3 51.7 236.3 54.2 237.5 55.5 239.1 55.5 240.4 55.5 241.1 54.9 241.6 53.8L246.6 53.8C245.8 57.3 243.1 59.5 239.2 59.5 234.7 59.5 231.5 56.5 231.5 51.7 231.4 47 234.6 43.9 239.2 43.9Z" fill="#FFFFFF"/><path d="M259.7 51.1C259.7 49 258.5 47.9 256.7 47.9 254.9 47.9 253.7 49 253.7 51.1L253.7 59.4 249 59.4 249 44.1 253.7 44.1 253.7 46.1C254.6 44.8 256.3 43.9 258.4 43.9 262 43.9 264.3 46.3 264.3 50.4L264.3 59.3 259.6 59.3 259.6 51.1Z" fill="#FFFFFF"/><path d="M267.3 40C267.3 38.6 268.4 37.5 270.1 37.5 271.8 37.5 272.9 38.6 272.9 40 272.9 41.4 271.8 42.5 270.1 42.5 268.4 42.6 267.3 41.4 267.3 40ZM267.7 44.1 272.4 44.1 272.4 59.3 267.7 59.3 267.7 44.1Z" fill="#FFFFFF"/><path d="M282.6 43.9C286.5 43.9 289.2 46 290 49.6L285 49.6C284.6 48.5 283.8 47.9 282.5 47.9 280.8 47.9 279.7 49.2 279.7 51.7 279.7 54.2 280.9 55.5 282.5 55.5 283.8 55.5 284.5 54.9 285 53.8L290 53.8C289.2 57.3 286.5 59.5 282.6 59.5 278.1 59.5 274.9 56.5 274.9 51.7 274.9 47 278.1 43.9 282.6 43.9Z" fill="#FFFFFF"/><path d="M298.4 43.9C300.7 43.9 302.3 44.9 303.2 46.3L303.2 44.1 307.9 44.1 307.9 59.3 303.2 59.3 303.2 57.1C302.3 58.4 300.7 59.5 298.4 59.5 294.6 59.5 291.6 56.4 291.6 51.6 291.6 46.9 294.6 43.9 298.4 43.9ZM299.8 48C298 48 296.4 49.3 296.4 51.7 296.4 54.1 298 55.5 299.8 55.5 301.6 55.5 303.2 54.2 303.2 51.7 303.2 49.2 301.6 48 299.8 48Z" fill="#FFFFFF"/><path d="M323 43.9C325 43.9 326.8 44.8 327.8 46.2L327.8 39.1 332.5 39.1 332.5 59.3 327.8 59.3 327.8 57.1C326.9 58.5 325.3 59.5 323 59.5 319.2 59.5 316.2 56.4 316.2 51.6 316.2 46.9 319.2 43.9 323 43.9ZM324.4 48C322.6 48 321 49.3 321 51.7 321 54.1 322.6 55.5 324.4 55.5 326.2 55.5 327.8 54.2 327.8 51.7 327.8 49.2 326.2 48 324.4 48Z" fill="#FFFFFF"/><path d="M342.8 59.6C338.3 59.6 335 56.6 335 51.8 335 47 338.2 44 342.8 44 347.3 44 350.5 46.9 350.5 51.6 350.5 52 350.5 52.5 350.4 53L339.7 53C339.9 55 341.1 55.9 342.6 55.9 343.9 55.9 344.7 55.2 345.1 54.4L350.1 54.4C349.3 57.3 346.6 59.6 342.8 59.6ZM339.7 50.3 345.6 50.3C345.6 48.6 344.3 47.7 342.7 47.7 341.2 47.7 340 48.6 339.7 50.3Z" fill="#FFFFFF"/><path d="M165.1 79.6 157.8 79.6 157.8 87.5 153 87.5 153 68.4 157.7 68.4 157.7 75.9 165 75.9 165 68.4 169.7 68.4 169.7 87.6 165 87.6 165 79.6Z" fill="#FFFFFF"/><path d="M180.2 87.7C175.7 87.7 172.2 84.7 172.2 79.9 172.2 75.1 175.7 72.1 180.2 72.1 184.7 72.1 188.2 75.1 188.2 79.9 188.3 84.7 184.8 87.7 180.2 87.7ZM180.2 83.7C181.9 83.7 183.5 82.5 183.5 79.9 183.5 77.3 182 76.1 180.3 76.1 178.6 76.1 177.1 77.3 177.1 79.9 177.1 82.5 178.5 83.7 180.2 83.7Z" fill="#FFFFFF"/><path d="M201.4 79.2C201.4 77.1 200.2 76 198.4 76 196.6 76 195.4 77.1 195.4 79.2L195.4 87.5 190.7 87.5 190.7 72.3 195.4 72.3 195.4 74.3C196.3 73 198 72.1 200.1 72.1 203.7 72.1 206 74.5 206 78.6L206 87.5 201.3 87.5 201.3 79.2Z" fill="#FFFFFF"/><path d="M215.3 72.1C217.3 72.1 219.1 73 220.1 74.4L220.1 67.3 224.8 67.3 224.8 87.5 220 87.5 220 85.3C219.1 86.7 217.5 87.7 215.2 87.7 211.4 87.7 208.4 84.6 208.4 79.8 208.5 75.1 211.5 72.1 215.3 72.1ZM216.7 76.1C214.9 76.1 213.3 77.4 213.3 79.8 213.3 82.2 214.9 83.6 216.7 83.6 218.5 83.6 220.1 82.3 220.1 79.8 220.1 77.3 218.5 76.1 216.7 76.1Z" fill="#FFFFFF"/><path d="M243.4 87.5 238.7 87.5 238.7 85.4C237.8 86.7 236.1 87.6 234 87.6 230.4 87.6 228 85.2 228 81.1L228 72.2 232.7 72.2 232.7 80.5C232.7 82.6 233.9 83.7 235.7 83.7 237.5 83.7 238.7 82.6 238.7 80.5L238.7 72.2 243.4 72.2 243.4 87.5Z" fill="#FFFFFF"/><path d="M251.5 87.5 246.8 87.5 246.8 72.3 251.5 72.3 251.5 74.8C252.6 73.2 254.3 72.1 256.3 72.1L256.3 77 255 77C252.8 77 251.5 77.8 251.5 80.4L251.5 87.5Z" fill="#FFFFFF"/><path d="M264.5 72.1C266.8 72.1 268.4 73.1 269.3 74.5L269.3 72.3 274 72.3 274 87.5 269.3 87.5 269.3 85.3C268.4 86.6 266.8 87.7 264.5 87.7 260.7 87.7 257.7 84.6 257.7 79.8 257.7 75.1 260.7 72.1 264.5 72.1ZM265.9 76.1C264.1 76.1 262.5 77.4 262.5 79.8 262.5 82.2 264.1 83.6 265.9 83.6 267.7 83.6 269.3 82.3 269.3 79.8 269.3 77.3 267.6 76.1 265.9 76.1Z" fill="#FFFFFF"/><path d="M283.6 87.7C279.5 87.7 276.7 85.4 276.5 82.5L281.2 82.5C281.3 83.6 282.3 84.3 283.6 84.3 284.8 84.3 285.5 83.8 285.5 83.1 285.5 80.6 277.1 82.4 277.1 76.8 277.1 74.2 279.3 72.1 283.4 72.1 287.4 72.1 289.6 74.3 289.9 77.3L285.5 77.3C285.4 76.3 284.6 75.6 283.2 75.6 282.1 75.6 281.5 76 281.5 76.8 281.5 79.2 289.8 77.5 289.9 83.2 289.9 85.7 287.5 87.7 283.6 87.7Z" fill="#FFFFFF"/></g><rect x="126.9" y="1.7" width="3.4" height="103.6" fill="#FFFFFF"/></g></svg>