<?xml version="1.0" encoding="UTF-8"?>
<svg id="Capa_1" xmlns="http://www.w3.org/2000/svg" baseProfile="tiny" version="1.2" viewBox="0 0 8192 8192">
  <!-- Generator: Adobe Illustrator 29.5.1, SVG Export Plug-In . SVG Version: 2.1.0 Build 141)  -->
  <path id="HNOC" d="M372.3,4137.28l18.74-5.95,40.08-11.95,16.18-5.95,75.04,11.06,18.74,26.41,9.39,38.36,10.23,18.74,79.27,60.53,8.51,17.06-.84,34.08,1.72,9.39,16.18,26.41,22.18,22.18,22.18,9.39,17.06,4.28,14.51,12.79,15.34,3.39,12.79-4.28,3.39-1.72-.84-4.28-3.39-4.28v-5.11l-.84-15.34,4.28-10.23,9.39-5.95,20.46-7.67,11.95-3.39,11.06-1.72h10.23l23.85,4.28,29.85-2.56,11.95,4.28,2.56,2.56,4.28,19.62-32.41,95.5-2.56,14.51-4.28,5.95-6.84,5.95-10.23,5.95-35.8,11.95-26.41-4.28-8.51-5.11h-2.56l-1.72,2.56-2.56,11.95v15.34l15.34,21.29-31.52.84-14.51-6.84-6.84-6.84-11.95-14.51h-8.51l-7.67,2.56-2.56,12.79-1.72,16.18-7.67,17.9-5.95,11.06-40.91,18.74-20.46,2.56-7.67,5.95-7.67,8.51-11.06,17.9-7.67,8.51-8.51,6.84-5.11,6.84-.84,10.23,9.39,31.52,2.56,40.91-.84,34.96-.84-5.95-5.11-16.18-11.06-18.74-11.06-14.51-31.52-23.85-5.95-11.06-5.11-39.19-7.67-16.18-19.62-10.23-42.63-5.11-14.51-11.95,5.11-12.79.84-12.79-2.56-12.79-5.95-11.95-6.84-9.39-6.84-5.95-6.84-1.72-11.06,3.39-10.23,10.23-17.9,34.96-11.06,10.23-57.98-17.06-31.52-22.18-63.09-13.62-38.36-18.74-48.59-7.67-18.74-2.56-2.56-40.08,1.72-20.46,8.51-17.06,12.79-7.67,27.29-7.67,10.23-11.06,12.79-22.18,17.06-18.74,38.36-33.24,11.95-14.51,5.95-10.23,9.39-5.95,21.29-2.56,15.34,2.56,30.69,11.06,14.51-1.72,14.51-13.62,5.95-21.29.84-23.02-5.11-64.77,4.28-7.67,12.79-14.51,3.39-10.23-2.56-22.18-1.72-2.56h0l-.23.09v.02Z"/>
  <path id="HNLE" d="M642.52,4784.7l.84-34.96-2.56-40.91-9.39-31.52.84-10.23,5.11-6.84,8.51-6.84,7.67-8.51,11.06-17.9,7.67-8.51,7.67-5.95,20.46-2.56,40.91-18.74,5.95-11.06,7.67-17.9,1.72-16.18,2.56-12.79,7.67-2.56h8.51l11.95,14.51,6.84,6.84,14.51,6.84,31.52-.84-15.34-21.29v-15.34l2.56-11.95,1.72-2.56h2.56l8.51,5.11,26.41,4.28,35.8-11.95,10.23-5.95,6.84-5.95,4.28-5.95,2.56-14.51,32.41-95.5-4.28-19.62-2.56-2.56-11.95-4.28-3.39-77.6-15.34-27.29-8.51-13.62-38.36-35.8-13.62-33.24v-5.11l1.72-18.74,18.74-6.84,62.21,7.67,44.31-3.39,35.8-10.23,9.39-.84.84-7.67v-7.67l-5.95-23.02-12.79-28.97-8.51-13.62-.84-19.62,1.72-17.06,3.39-10.23,5.11-9.39,6.84-6.84,9.39-11.06,2.56-5.95-2.56-13.62,16.18-11.95,5.11-34.08-6.84-40.91,44.31-13.62,9.39-5.11,57.98,9.39,27.29,72.48,34.08,56.26,23.02,28.97,9.39-3.39,19.62-16.18,12.79-20.46,13.62-13.62,11.06-.84,13.62,5.95,3.39,2.56,15.34,22.18,33.24-.84,25.57,15.34-35.8,60.53,7.67,8.51,19.62,33.24,17.9,10.23,21.29,2.56,15.34-1.72,8.51,15.34-6.84,39.19-27.29,44.31,12.79,23.02,13.62,80.99-24.73,45.19-6.84,23.85-2.56,15.34-12.79,21.29-34.08,17.9-29.85,4.28-56.26-.84-30.69,9.39-20.46,13.62-4.28,10.23,8.51,52.86,24.73,33.24,25.57,23.02,27.29,3.39,4.28,4.28,8.51,11.06,12.79,63.93-1.72,23.02-11.95,26.41-1.72,9.39,3.39,6.84,5.95,4.28,6.84,4.28,7.67,3.39,7.67,5.11,7.67,4.28,5.95,1.72,5.11.84,5.95-1.72h13.62l27.29,5.95,22.18,12.79,1.72,13.62-1.72,5.11v17.9l1.72,27.29,8.51,56.26-2.56,18.74-4.28,3.39-6.84,6.84-1.72,5.95-1.72,7.67v10.23l-3.39,5.11-3.39,2.56-5.95.84-11.06,5.11-28.13,25.57-69.04,40.91-40.08,17.9-21.29,15.34-3.39,5.95-.84,3.39-13.62,18.74-2.56,1.72v-.84l.84-2.56.84-4.28-11.06-11.06-11.95-5.11-54.54-4.28-94.61-29.85-31.52-2.56-31.52,5.11-7.67,3.39v-2.56l.84-6.84-3.39-10.23-5.95-8.51-8.51-7.67-5.95-2.56-27.29-3.39-18.74-12.79v-17.9l7.67-21.29.84-22.18-8.51-14.51-11.06,1.72-12.79,7.67-14.51,5.95-54.54-4.28-22.18,3.39-7.67-36.64-18.74-38.36-26.41-32.41-30.69-19.62-19.62-.84-17.06,7.67-14.51,8.51-11.95,2.56-11.06-7.67-4.28-13.62-.84-10.23h0l.08-.09.04.06Z"/>
  <path id="HNIN" d="M1264.3,5097.97l2.56-1.72,13.62-18.74.84-3.39,3.39-5.95,21.29-15.34,40.08-17.9,69.04-40.91,28.13-25.57,11.06-5.11,5.95-.84,3.39-2.56,3.39-5.11v-10.23l1.72-7.67,1.72-5.95,6.84-6.84,4.28-3.39,2.56-18.74-8.51-56.26-1.72-27.29v-17.9l1.72-5.11-1.72-13.62-22.18-12.79-27.29-5.95h-13.62l-5.95,1.72-5.11-.84-5.95-1.72-7.67-4.28-7.67-5.11-7.67-3.39-6.84-4.28-5.95-4.28-3.39-6.84,1.72-9.39,11.95-26.41,1.72-23.02-12.79-63.93-8.51-11.06-4.28-4.28-27.29-3.39-25.57-23.02-24.73-33.24-8.51-52.86,4.28-10.23,20.46-13.62,30.69-9.39,56.26.84,29.85-4.28,34.08-17.9,12.79-21.29,2.56-15.34,6.84-23.85,24.73-45.19-13.62-80.99-12.79-23.02,97.17,6.84,72.48-7.67,54.54-5.11,41.75,8.51,36.64,3.39,8.51-5.95,23.02-13.62,17.06,23.85,6.84,2.56,11.95,4.28,9.39.84,42.63,11.06,21.29,15.34,23.02,8.51,11.06,15.34,10.23,19.62,1.72,5.11.84,12.79,2.56,8.51,8.51,15.34,9.39,8.51,29.85,14.51,7.67,6.84,5.11,5.11v12.79l-.84,12.79,14.51,13.62,40.08,51.14,9.39,17.9.84,4.28-.84,4.28-.84,3.39-5.11,4.28-55.42,40.91-15.34,8.51-15.34,6.84h-12.79l-9.39-1.72-8.51-3.39h-6.84l-3.39,6.84-2.56,17.06,5.11,39.19-20.46,38.36-6.84,8.51-11.95,8.51-14.51,5.11-7.67,6.84-4.28,16.18.84,9.39-10.23,17.9-51.98,1.72-42.63,35.8-20.46,20.46-11.06,27.29-10.23,14.51-3.39,3.39-35.8,17.9-12.79,12.79-68.21,75.04-7.67,7.67-4.28-1.72-3.39,3.39v5.95l7.67,12.79,8.51,8.51,11.06,24.73-11.06,63.93,1.72,2.56v.84l-2.56-.84-18.74-2.56-12.79,5.11v4.28l.84,25.57,2.56,4.28,11.06,10.23,2.56,3.39-5.95,17.9-8.51,1.72-10.23-1.72-15.34,5.95-7.67,9.39-5.11,8.51-4.28,7.67-10.23,9.39-13.62,4.28-14.51,1.72-13.62,5.11-8.51,15.34-8.51-3.39-9.39-2.56-10.23-1.72-7.67.84-4.28,4.28-.84,7.67v7.67l-1.72,3.39-8.51-.84-20.46-7.67-11.95-.84-49.42,11.06-23.02,10.23-23.02,13.62-33.24,1.72,11.06-17.9-.84-20.46-13.62-33.24-3.39-12.79,2.56-18.74,4.28-15.34.84-15.34-5.95-13.62-1.72-3.39,5.11.84,1.72-.84h0l-.18-.15h0Z"/>
  <path id="HNLP" d="M1649.8,5073.72v-.84s-1.76-2.54-1.76-2.54l10.25-64.06-11.37-24.59-8.62-8.4-7.83-12.69-.08-5.95,3.35-3.43,4.3,1.67,7.57-7.77,67.26-75.89,12.63-12.95,35.57-18.35,3.35-3.43,10.05-14.64,10.72-27.43,20.2-20.72,42.18-36.33,51.95-2.38,10-18.03-.96-9.38,4.08-16.23,7.58-6.94,14.44-5.29,11.84-8.66,6.73-8.6,19.97-38.61-5.6-39.12,2.34-17.09,3.3-6.88,6.84-.09,8.55,3.28,9.41,1.6,12.79-.16,15.25-7.03,15.23-8.7,54.9-41.61,13.03,18.58,17.28,17.68,48.76,13.01,1.75,2.54,11.22,12.65,3.4.8,38.45,7.19,13.72,7.5,24.84,8.2,13.64,1.55,10.26,2.43,55.13-23.72,6,4.2,15.76,33.04,3.52,10.19,4.59,24.67-8.34,13.73,10.36,10.1-4.08,16.23-11.76,15.49-5.06,4.34-11.01,4.42-19.56,4.53-18.77-2.32-16.02,12.99-11.88,5.26-26.28,10.56-15.3,3.58-19.59,2.81-25.59-1.4-45.89,11.64-7.7-2.46-5.11.06-2.53,2.59-4.17,8.56,4.6,25.51,42.85,17.36,18.16,20.23-6.58,20.54-2.5,5.14-1.64,5.97,1.78,5.09,4.34,5.06,20.56,7.41,12.82,2.4,14.57,4.93,13.73,8.34,21.52,18.47,13.71,6.67,8.66,11.84,7.83,12.69,1.39,43.46,32.01-31.93,16.03-12.15,44.25-4.84,25.14,167.64-2.25,24.76-8.82,45.3-3.28,8.55-3.33,5.15-9.01,29.97-34.4,44.75-26.41.33-30.95-20.07-51.1,3.2-18.7,3.63-19.83-16.81-7.72-4.18-17.14-6.62-6.89-4.19-10.41-14.38-12.38-33.93-12.07-9.24-18.73,1.08-11.82,10.38-10.06,13.75-12.68,8.67-11.94.99-23.91-4.81-12.8-.68-9.35,3.51-16.03,12.15-5.91,3.46-8.54-2.45-18.05-11.72-6.86-1.63-3.4-.8-17.83,5.34-56.72,29.69-10.64-32.28-20.76-23.59-23.29-21-18.17-21.06-18.5-47.52-14.66-11.77-32.43-1.31-64.67,8.49-20.47-.58-29.92-5.57h0l.05.24.02.03Z"/>
  <path id="HNVA" d="M2283.32,5279.76l18.74-3.39,51.14-2.56,30.69,20.46h26.41v37.52l-2.56,55.42,9.39,15.34,50.31,34.08,38.36,7.67,23.02-2.56,4.28,1.72,5.95,4.28,3.39,4.28,44.31,33.24,32.41,20.46,12.79,4.28,9.39-5.95,2.56,3.39,22.18,17.9,10.23,5.11,8.51,6.84,5.95,8.51-3.39,50.31,5.95,9.39,5.11,11.06.84,8.51,17.9,38.36,44.31,33.24-3.39,26.41,1.72,11.95,6.84,19.62,13.62,26.41,2.56,26.41-13.62,31.52-25.57,18.74v.84l-17.9-17.06-8.51-5.95-11.95-2.56-24.73,4.28-9.39-1.72-11.95-11.95-21.29,15.34-6.84,6.84-5.95,12.79-2.56,17.06,4.28,9.39.84,6.84-11.95,10.23-7.67.84-43.47-.84-19.62,4.28-11.06.84-11.95-5.11v-8.51h17.9v-8.51l-23.02-5.11-24.73-8.51-21.29-1.72-16.18,15.34h-8.51l2.56-11.95,13.62-32.41-17.06-6.84-4.28-13.62,5.11-35.8-6.84-19.62-15.34,3.39-17.9,14.51-11.95,14.51,11.95,36.64-18.74,33.24-33.24,25.57-35.8,9.39-22.18-4.28-28.97-17.9-23.85-7.67-1.72-9.39v-8.51l-4.28-4.28h-11.95l-8.51-2.56-17.9-5.95,98.05-45.19,21.29-24.73,3.39-16.18-2.56-17.06-5.95-15.34-10.23-11.06-17.9-6.84-26.41,8.51-12.79-5.11-12.79-28.97,6.84-34.96,29.85-72.48,3.39-23.02-.84-47.75,4.28-22.18,11.06-16.18,11.95-11.95,5.95-13.62-7.67-21.29,5.95-20.46,25.57-57.98,11.06-18.74-22.18-9.39-34.96-29.85h0l.09.05v-.03ZM2450.42,5989.9l3.39,9.39-1.72,19.62-13.62,18.74-27.29,4.28-14.51-1.72-5.95-2.56-5.11-4.28v-7.67h8.51l-4.28-6.84-7.67-14.51-5.11-6.84,20.46-5.95,16.18-2.56,36.64.84h0l.1.05h-.02ZM2441.03,5889.29l12.79,3.39,33.24-6.84,18.74-.84v8.51l-22.18,9.39,15.34,51.14-18.74,17.9-57.98-18.74-26.41-16.18,3.39-22.18,16.18-23.85,11.06-7.67,14.51,5.95h.05v.02Z"/>
  <path id="HNOL" d="M5751.8,4078.65l-2.56,1.72-17.06,15.34-11.06,20.46-6.84,47.75-3.39,7.67-6.84,2.56-19.62,5.95,6.84,11.95,34.96,25.57-27.29,25.57-6.84,10.23h31.52l-1.72,4.28-6.84,17.06-44.31,45.19-26.41,11.95-21.29-15.34-19.62-22.18-23.02-5.95-9.39,18.74-5.95,34.96-2.56,65.65-4.28,7.67-28.13,30.69-1.72,8.51,2.56,19.62-.84,7.67-34.08,26.41,19.62,13.62,22.18,20.46,16.18,25.57.84,28.97-14.51,21.29-25.57,15.34-30.69,10.23-30.69,5.95h-46.87l-12.79,2.56-29.85,14.51-11.95,3.39-6.84,6.84-5.11,8.51-8.51,11.06-3.39,9.39-3.39,4.28-5.11.84-13.62-2.56-5.11,1.72-11.95,11.06-14.51,18.74-11.95,20.46-9.39,32.41-10.23,24.73-13.62,24.73-14.51,17.9-32.41,25.57-20.46,11.95-45.19,12.79-6.84,17.06-3.39,20.46-11.06,17.06-23.02,7.67-20.46,4.28-.84-.84-15.34-41.75-5.11-5.11-9.39-7.67-10.23-5.95-12.79-9.39-4.28-10.23-2.56-12.79v-14.51l-5.11-27.29-7.67-15.34-11.95-13.62-19.62-17.06-10.23-3.39-5.95,1.72-2.56,9.39-3.39.84-8.51-.84-47.75-14.51-58.81-12.79-7.67.84-5.11,5.95-14.51,29.85-5.95,4.28-7.67,1.72-16.18-2.56-12.79-6.84-16.18-11.06-11.95-1.72-10.23.84-5.95,3.39-4.28,4.28-5.95,4.28-12.79,5.11-4.28,4.28-2.56,4.28-2.56,5.95-.84,13.62-1.72,5.95-3.39,5.11-5.95,5.11-9.39,2.56-17.06.84-8.51-1.72-14.51-11.95-24.73-32.41-46.87-22.18-10.23-7.67-5.95-10.23-1.72-11.95-5.11-17.06-6.84-17.06-16.18-25.57-12.79-11.06-12.79-7.67-22.18-5.11h-5.11l-5.95,1.72-4.28,3.39-3.39,4.28-4.28,11.06-4.28,5.11h-11.06l-31.52-6.84-34.96-13.62-8.51-9.39-33.24-60.53-11.06-13.62-11.06-5.11-16.18-3.39-32.41-.84-12.79,1.72-23.85,6.84-17.9,9.39-13.62,8.51-6.84,1.72-6.84,3.39-5.95,4.28-11.95,11.95-28.13,17.06-9.39,3.39-14.51,2.56-91.22-5.95-11.06-3.39-5.95-5.11-7.67-17.9-5.95-8.51-5.11-5.95-23.02-17.9-28.97-7.67-5.11-2.56-24.73-25.57-69.93-19.62-26.41-3.39-8.51,1.72-5.95-.84-5.11-5.95-5.95-12.79-11.95-14.51-5.95-3.39-4.28-.84-13.62,2.56-3.39,1.72-4.28,1.72-11.95,1.72-7.67-1.72-52.86-22.18.84-17.9-16.18-43.47-3.39-17.9-2.56-18.74-4.28-9.39-12.79-20.46-3.39-11.95-.84-11.06,5.11-20.46.84-23.02-23.85-30.69-42.63-40.08-11.95-11.95-23.85-5.95-11.06-9.39-17.06-18.74-14.51-27.29-39.19-96.34-9.39-47.75-10.23-13.62-3.39-13.62-2.56-34.96-5.95-13.62-8.51-13.62-4.28-9.39-7.67-27.29,11.95-10.23,10.23-34.96,11.95-9.39-2.56-3.39-5.11-4.28-17.9-10.23-14.51-14.51-28.97-15.34-11.06-11.06-12.79-16.18-5.11-8.51-3.39-14.51,17.9-31.52,4.28-4.28,7.67-5.11,5.95.84,9.39,1.72,37.52-10.23,24.73-23.02,18.74-12.79,6.84-11.06,1.72-10.23v-8.51l1.72-8.51,2.56-8.51,5.11-11.95,9.39-13.62,2.56-7.67-.84-5.11-.84-5.11.84-3.39,9.39-22.18-9.39-77.6.84-10.23,4.28-17.9,4.28-5.11,5.11-3.39,8.51-2.56,17.9-9.39,4.28-1.72,11.06-8.51,2.56-10.23,57.98-12.79,38.36,31.52,10.23,2.56,13.62,2.56h23.02l9.39-2.56,7.67-4.28,12.79-9.39,12.79-3.39,7.67-18.74,10.23-11.95,11.95-32.41,5.11-7.67,5.95-5.11,5.11.84,5.95,1.72h6.84l9.39-3.39,104.84-57.09,16.18-4.28h13.62l29.85,9.39,17.9,9.39,15.34,11.06,11.95,10.23,10.23,11.06,5.95,8.51,3.39,7.67,7.67,6.84,14.51,4.28,29.85.84,16.18-1.72,32.41-16.18,69.04-41.75,15.34-5.95,56.26-40.08,75.88,40.91,28.97,6.84,28.13-6.84,23.85-11.95,20.46-4.28,11.06-4.28,22.18-3.39,11.95.84,10.23,2.56,9.39,4.28h7.67l5.11-7.67,71.6-39.19,75.88-74.16,30.69-49.42,5.11-7.67,8.51-3.39,8.51,1.72,8.51,2.56,14.51,9.39,13.62.84,24.73-15.34,26.41-21.29,10.23-11.95,4.28-9.39-2.56-11.95,27.29-13.62,6.84.84,8.51,3.39,7.67,7.67,12.79,5.11,9.39-2.56,12.79-4.28,10.23-5.95,26.41,5.95,100.61,54.54,127.02,109.96,135.53,51.98,44.31,35.8,66.48,98.05,71.6,88.66,21.29,12.79,173.89,76.71,40.91,38.36,74.16,87.83v421.14h0l-.19-.27v-.06Z"/>
  <path id="HNGD" d="M5784.34,4083.3v-1606.91l61.37,20.46,119.35,54.54,150.03,45.19,71.6,24.73,17.06,13.62-7.67,15.34-15.34,23.85v52.86l26.41,25.57,23.85,3.39,30.69-10.23,4.28-26.41,3.39-11.95,11.95,1.72,8.51,15.34,22.18,15.34,31.52-4.28,29.85,3.39,60.53,7.67,11.06-13.62,19.62-7.67-26.41-11.06-31.52-7.67-98.05-16.18-36.64-16.18-31.52-15.34-11.06-20.46,50.31,10.23,170.49,32.41,111.68,11.95,74.16,3.39,25.57,8.51,67.37,57.09,91.22,74.16,134.69,115.07,131.3,113.4,73.32,61.37,94.61,57.98,23.02,13.62,23.02,10.23,43.47,7.67,11.06,5.95,8.51,11.95.84,10.23-8.51,6.84-17.9,2.56-22.18-8.51-46.87-37.52-34.96-11.95-23.85-17.06-11.95-5.11-37.52-.84-16.18-3.39-14.51-14.51,5.95-1.72,5.11-4.28,5.95-1.72-11.06-16.18-40.91-46.03h-8.51l-13.62,6.84-16.18-10.23-17.9-14.51-16.18-7.67-25.57,2.56-11.06,8.51-9.39,11.06-17.06,11.95-8.51-5.11-34.08-12.79,16.18-13.62,5.95-8.51,3.39-7.67-5.95-3.39-13.62-2.56h-14.51l-9.39,1.72-3.39,13.62,7.67,22.18,14.51,23.85,16.18,18.74-3.39,2.56-.84.84-1.72,1.72-2.56,4.28h-8.51l-37.52-72.48-13.62-15.34-13.62-2.56-17.06,3.39-21.29,6.84-14.51-.84-21.29-5.11-14.51-1.72,9.39,28.97,7.67,10.23,23.02,8.51.84,10.23-4.28,14.51-2.56,15.34h8.51l3.39-19.62,24.73-11.95,11.95-35.8,11.06-3.39,11.95,6.84,17.06,42.63,19.62,34.08,7.67,28.97-26.41,11.95-13.62,14.51,9.39,32.41,21.29,35.8,21.29,22.18,32.41,17.06,26.41,6.84,11.95-11.95-11.95-38.36,16.18,13.62,15.34,17.06,5.11,20.46-10.23,20.46,17.06,21.29,24.73,3.39,60.53-7.67v9.39l-11.95-.84-8.51,2.56-13.62,6.84v7.67l10.23,22.18,15.34,20.46,20.46,14.51,26.41,5.95,22.18-3.39,28.97-6.84,28.13-11.95,18.74-13.62-15.34-15.34-52.86-28.13-9.39-9.39-4.28-8.51-5.11-5.95-11.06-2.56-13.62-.84-94.61-34.08-16.18-10.23-28.13-41.75-14.51-11.06,11.06-9.39,11.95-6.84,27.29-10.23,111.68,49.42,17.9,25.57,6.84,13.62,17.06,12.79,21.29,9.39,34.96,7.67,14.51,10.23,12.79,14.51,11.06,16.18-8.51,5.95-10.23,8.51-6.84,3.39v7.67l20.46,4.28,17.06-11.95,13.62-1.72,9.39,37.52-2.56,47.75,2.56,12.79,9.39,9.39,9.39-.84,5.95-8.51v-17.06h9.39l11.06,24.73,10.23-5.95,20.46-37.52,19.62-11.06,25.57-7.67,44.31-5.95,5.95-5.95-2.56-29.85,1.72-10.23,8.51-5.11,7.67.84,9.39,2.56,80.16,16.18,21.29-4.28v7.67l-7.67,7.67.84,5.11,4.28,5.95,2.56,9.39v38.36l-5.95,19.62-14.51,8.51-14.51-5.95-6.84-22.18-4.28-5.95-11.06-4.28-12.79-2.56-10.23-.84-7.67,5.11-6.84,11.95-7.67,18.74-5.95,6.84-5.11,4.28-4.28,5.95-1.72,13.62,2.56,11.95,7.67,2.56,8.51-4.28,6.84-5.95-6.84-10.23-.84-8.51,2.56-7.67,5.11-8.51h9.39l2.56,31.52,8.51,23.02,15.34,8.51,23.85-10.23,6.84-7.67,11.95-18.74,6.84-7.67,10.23-6.84,55.42-19.62-.84-5.11-5.11-13.62-5.11-7.67-7.67-5.95-6.84-7.67-5.11-12.79-4.28-18.74-9.39-23.85-15.34-15.34-23.02,11.95-36.64-22.18-18.74-4.28-21.29,10.23-7.67-9.39,2.56-4.28,5.11-12.79-20.46-3.39-53.7-19.62-11.06-7.67-12.79-15.34-26.41-7.67-18.74-11.95,7.67-23.85,19.62-9.39,19.62,10.23,17.9,17.06,14.51,8.51,13.62,5.11,133.86,69.93,167.94,63.93,63.93,46.87,14.51,24.73,20.46,82.71,21.29,51.98,33.24,48.59,38.36,30.69,152.59,61.37-16.18,2.56-41.75-2.56-17.06,3.39-33.24,15.34-54.54-.84-5.11.84-15.34-5.95-9.39-6.84.84-6.84,15.34-6.84-55.42-5.95-21.29,1.72-18.74,11.95-5.95-17.06-13.62-7.67-15.34-6.84-16.18-11.95-11.95,22.18-18.74,21.29-25.57,15.34-28.97,3.39-11.06-6.84-15.34-23.02-6.84-6.84-16.18-2.56-12.79,1.72-4.28,5.95,8.51,12.79-6.84,8.51-1.72,7.67-.84,19.62-11.95-11.06-6.84,5.11-1.72,15.34,3.39,17.06-6.84-3.39-18.74-5.11,3.39,4.28,3.39,8.51,1.72,5.11-17.9,5.11-30.69,24.73-30.69,11.06-5.95,14.51-2.56,17.06-5.11,15.34h-9.39l-10.23-12.79-23.02-6.84-28.13-1.72-23.85,3.39-23.85,11.06-4.28,14.51,11.06,36.64h-8.51l-5.11-11.06-9.39-5.95-12.79-1.72-15.34.84,2.56,20.46-25.57,10.23-69.93,4.28,9.39,14.51,5.95,6.84,9.39,5.95-23.02.84-24.73,7.67-22.18,12.79-14.51,13.62-7.67-9.39-4.28-3.39-5.11-1.72-8.51-3.39,5.95,11.95,1.72,5.95-16.18-4.28-19.62-22.18-15.34-8.51-5.95,29.85v11.95l5.95,10.23-122.74,6.84-21.29-2.56-2.56-10.23-5.95-3.39-21.29.84-12.79-1.72-5.11-4.28-3.39-5.95-28.13-18.74-9.39.84-13.62,11.06,14.51,30.69,8.51,11.95,11.06,10.23v10.23l-8.51,5.11-5.11-.84-5.95-2.56-10.23-1.72-11.06,1.72-6.84,5.95-5.11,5.95-6.84,4.28-30.69,8.51-17.9,1.72-15.34-5.95-29.85-32.41-9.39-7.67-11.06-6.84-17.06-5.95-16.18,1.72-6.84,15.34,6.84,59.65-6.84,28.97-24.73,12.79-14.51-.84-29.85-6.84-18.74-1.72-9.39-6.84-9.39-33.24-11.95-12.79-16.18,24.73-17.9,32.41-22.18,28.13-46.87,16.18-32.41,18.74-13.62,3.39-18.74-5.11-12.79-11.06-13.62-7.67-18.74,5.95,4.28-25.57,4.28-8.51-90.38-3.39-28.13-5.95-48.59-20.46-23.85-2.56-23.02,13.62-18.74-44.31-12.79-21.29-25.57-17.06,1.72-17.06-3.39-15.34-24.73-3.39.84-2.56,9.39-12.79,3.39-3.39-17.9-30.69-27.29-20.46-32.41-9.39-32.41,1.72-74.16,13.62-20.46,11.95-57.09,54.54-22.18,16.18-19.62,13.62h0l-.42.08h.06Z"/>
  <path id="HNEP" d="M3633.68,4530.8l52.86,22.18,7.67,1.72,11.95-1.72,4.28-1.72,3.39-1.72,13.62-2.56,4.28.84,5.95,3.39,11.95,14.51,5.95,12.79,5.11,5.95,5.95.84,8.51-1.72,26.41,3.39,69.93,19.62,24.73,25.57,5.11,2.56,28.97,7.67,23.02,17.9,5.11,5.95,5.95,8.51,7.67,17.9,5.95,5.11,11.06,3.39,91.22,5.95,14.51-2.56,9.39-3.39,28.13-17.06,11.95-11.95,5.95-4.28,6.84-3.39,6.84-1.72,13.62-8.51,17.9-9.39,23.85-6.84,12.79-1.72,32.41.84,16.18,3.39,11.06,5.11,11.06,13.62,33.24,60.53,8.51,9.39,34.96,13.62,31.52,6.84h11.06l4.28-5.11,4.28-11.06,3.39-4.28,4.28-3.39,5.95-1.72h5.11l22.18,5.11,12.79,7.67,12.79,11.06,16.18,25.57,6.84,17.06,5.11,17.06,1.72,11.95,5.95,10.23,10.23,7.67,46.87,22.18,24.73,32.41,14.51,11.95,8.51,1.72,17.06-.84,9.39-2.56,5.95-5.11,3.39-5.11,1.72-5.95.84-13.62,2.56-5.95,2.56-4.28,4.28-4.28,12.79-5.11,5.95-4.28,4.28-4.28,5.95-3.39,10.23-.84,11.95,1.72,16.18,11.06,12.79,6.84,16.18,2.56,7.67-1.72,5.95-4.28,14.51-29.85,5.11-5.95,7.67-.84,58.81,12.79,47.75,14.51,8.51.84,3.39-.84,2.56-9.39,5.95-1.72,10.23,3.39,19.62,17.06,11.95,13.62,7.67,15.34,5.11,27.29v14.51l2.56,12.79,4.28,10.23,12.79,9.39,10.23,5.95,9.39,7.67,5.11,5.11,15.34,41.75.84.84-11.06,1.72-27.29,8.51-11.95,17.9-11.95,12.79-43.47,13.62,4.28,13.62-4.28.84h-3.39l-1.72,1.72.84,5.95h-7.67l-11.06-3.39-24.73,22.18-16.18,7.67-22.18-1.72-12.79-3.39-5.95,7.67-1.72,27.29-11.95,39.19-5.11,24.73,4.28,11.06,18.74,5.95,6.84,14.51-2.56,19.62-10.23,20.46-8.51,8.51-2.56,2.56-.84-.84-2.56-.84-16.18-18.74-25.57-1.72-28.97.84-27.29-9.39-19.62-24.73-12.79-26.41-14.51-22.18-27.29-11.95-17.06.84-11.06,5.11-11.06,2.56-17.9-5.95-7.67-7.67-27.29-35.8-87.83-63.93-3.39-34.08,13.62-28.13v-13.62l-95.5,13.62-17.06,9.39-13.62,12.79-6.84,11.06-4.28,11.95-9.39,16.18-14.51,15.34-15.34,8.51-14.51,5.11-12.79,9.39-42.63,66.48-81.83,88.66-19.62,30.69-9.39,38.36-7.67,18.74-14.51,17.06-18.74,8.51-22.18,5.95-64.77,4.28-8.51-1.72-11.95-3.39-6.84-5.11-19.62-20.46-18.74,2.56-16.18,8.51-17.9,5.95-22.18-5.95-41.75-23.02-48.59,2.56-101.45,19.62-54.54-6.84-25.57,2.56-28.13,14.51-14.51,9.39-5.95,5.11-2.56,8.51-2.56,17.06-.84,23.02h-.84l-17.9,7.67-10.23,1.72-8.51,7.67-10.23,16.18-8.51.84h-9.39l-21.29,1.72-10.23,4.28-47.75,31.52-5.11-9.39-36.64,3.39-5.95-3.39-8.51-1.72-2.56,4.28-4.28,23.02-5.11,11.95-9.39,13.62-19.62,22.18-13.62,10.23-10.23,6.84-17.9,5.95-13.62,12.79-5.11,10.23-2.56,18.74-28.13,32.41-38.36,22.18-8.51,3.39-15.34-2.56-22.18-17.06-10.23-23.85-.84-11.95-10.23-8.51-57.09-3.39-17.9-10.23-3.39-15.34-5.11-24.73-7.67-6.84-11.06-11.95-13.62-4.28-8.51-17.06,12.79-53.7,39.19-12.79,58.81,25.57,5.95.84.84-5.11,3.39-22.18,9.39-20.46,9.39-13.62.84-20.46-14.51-26.41-7.67-9.39-3.39-13.62-.84-17.9.84-17.9,2.56-10.23,1.72-4.28,8.51-10.23,18.74,8.51,28.13,25.57,10.23,5.11,29.85,5.11h19.62l5.95-4.28,21.29-27.29,23.02-58.81,5.11-58.81-1.72-24.73,3.39-17.06,5.95-12.79.84-10.23-.84-9.39-5.11-18.74,42.63,7.67,20.46-11.06,14.51-15.34,13.62-25.57,4.28-51.14-2.56-13.62-3.39-8.51-9.39-5.11-34.08-25.57-32.41-44.31-7.67-23.02,26.41-10.23h17.06l19.62,3.39,26.41-3.39,12.79-25.57-1.72-5.11-4.28-5.95-6.84-4.28-10.23-2.56-1.72-5.11,2.56-5.95,13.62-19.62,14.51-40.08,60.53-53.7,23.85-42.63,9.39-41.75,40.91-39.19,92.94-71.6h0l.2.22v-.02Z"/>
  <path id="HNCH" d="M2795.5,5878.2v-.84l25.57-18.74,13.62-31.52-2.56-26.41-13.62-26.41-6.84-19.62-1.72-11.95,3.39-26.41-44.31-33.24-17.9-38.36-.84-8.51-5.11-11.06-5.95-9.39,3.39-50.31-5.95-8.51-8.51-6.84-10.23-5.11-22.18-17.9-2.56-3.39-5.11-17.06v-17.9l6.84-28.13,3.39-33.24,3.39-14.51,13.62-4.28,24.73-.84,14.51,4.28,13.62,3.39,5.95-1.72h6.84l5.11,1.72-.84,5.11-9.39,21.29,2.56,17.06,23.85,23.02,17.06,16.18,50.31-5.95,14.51,7.67,12.79,5.95,42.63-5.11,61.37,22.18-12.79,53.7,8.51,17.06,13.62,4.28,11.06,11.95,7.67,6.84,5.11,24.73,3.39,15.34,17.9,10.23,57.09,3.39,10.23,8.51.84,11.95,10.23,23.85,22.18,17.06,15.34,2.56,8.51-3.39,38.36-22.18,28.13-32.41,2.56-18.74,5.11-10.23,13.62-12.79,17.9-5.95,10.23-6.84,13.62-10.23,19.62-22.18,9.39-13.62,5.11-11.95,4.28-23.02,2.56-4.28,8.51,1.72,5.95,3.39,36.64-3.39,5.11,9.39,47.75-31.52,10.23-4.28,21.29-1.72h9.39l8.51-.84,10.23-16.18,8.51-7.67,10.23-1.72,17.9-7.67h.84l-3.39,68.21,1.72,11.06,5.11,6.84,5.11,3.39,11.06,8.51,4.28,8.51.84,20.46-7.67,40.91.84,21.29,40.08,153.43-1.72,20.46-16.18,34.96-1.72,18.74,4.28,11.95,7.67,4.28,8.51,1.72,7.67,7.67,9.39,16.18,2.56,7.67,7.67,36.64-2.56,19.62-10.23,17.06-17.06,15.34-8.51,6.84-9.39,5.95-11.06,2.56-11.95-3.39-71.6-35.8-21.29-1.72-20.46,5.95-16.18,11.06-59.65,51.98-10.23,12.79-8.51,17.06-9.39,35.8-1.72,3.39,2.56,7.67,9.39,20.46,1.72,2.56-10.23,67.37,2.56,8.51,7.67,2.56,4.28,5.11-3.39,11.95-5.95,6.84-17.9,9.39-7.67,5.11-28.97,46.03-14.51,15.34-31.52,20.46-25.57,11.95-6.84,21.29-14.51-.84-28.97-17.9-17.9-1.72-285.56,17.9h.84l11.95-8.51,3.39-16.18,9.39-12.79,12.79-9.39,17.06-5.95v-7.67l-34.08-1.72-24.73-5.11-18.74-10.23-16.18-18.74-7.67-12.79-2.56-6.84,2.56-20.46,7.67-2.56,38.36-5.95,12.79-4.28-72.48-18.74-40.08-4.28-23.85,6.84h-7.67l-3.39-49.42-17.06-50.31-23.85-44.31-23.85-32.41-7.67-19.62-1.72-1.72-3.39-5.11-6.84.84-8.51,1.72-5.95-1.72-8.51-11.95-4.28-10.23,1.72-10.23,11.06-11.95,10.23-6.84,21.29-10.23,11.06-9.39,24.73-34.96,9.39-8.51,16.18,3.39,19.62-4.28,40.08-16.18-1.72-10.23v-7.67l1.72-8.51h0l-.06-.03.05.06Z"/>
  <path id="HNCR" d="M1347.84,3070.62l85.27-67.32,57.09-57.09,37.52-64.77,7.67-9.39,25.57-.84,20.46-6.84,17.9-10.23,21.29-9.39,7.67,9.39,8.51-17.06-.84-13.62,3.39-11.95,14.51-5.11,7.67,2.56,56.26,40.91,30.69,9.39,32.41-14.51,72.48-77.6,30.69-19.62-6.84-20.46,11.95-4.28,49.42,6.84,72.48-43.47,8.51-17.9,3.39-12.79-7.67-5.95-13.62-3.39-11.06-9.39-5.11-9.39,4.28-4.28,52.86-.84,20.46-6.84,20.46-14.51,36.64-11.95,106.56-7.67,23.02-5.95,6.84-18.74,10.23-2.56,3.39,30.69-6.84,11.95-11.95,7.67-13.62,12.79-7.67,11.95-11.06,31.52-8.51,12.79-19.62,20.46-6.84,11.06v13.62l18.74,22.18,5.11,17.06,10.23-2.56,7.67,5.95,4.28,11.95-.84,14.51-7.67,13.62-11.06,5.95-17.9,5.11-37.52,25.57-6.84,11.95,22.18,5.11-17.9,21.29,20.46,23.02,32.41,26.41,18.74,29.85-2.56,4.28-9.39,33.24.84,4.28-7.67,4.28-9.39-.84-6.84-2.56-4.28-.84-7.67,17.06-5.11,21.29-6.84,17.9-12.79,8.51-13.62,24.73,4.28,17.9,11.06,15.34,5.95,17.06-3.39,23.02-9.39-1.72-13.62-10.23h-13.62l-8.51,11.95,8.51,6.84,15.34,8.51,12.79,11.95,4.28,17.9-5.11,11.06-17.9,15.34-30.69,51.14-8.51,10.23-5.11,4.28-5.11,2.56-11.95,9.39-6.84,4.28-17.06,4.28-5.95,3.39-1.72,4.28.84,3.39,1.72,4.28v5.11l-3.39,5.95-14.51,15.34,1.72,8.51v9.39l-1.72,8.51-3.39,8.51,2.56,13.62-11.06,18.74,5.95,9.39,4.28-.84,7.67-3.39,3.39,1.72.84,1.72v15.34l-4.28,18.74,1.72,8.51-4.28,12.79v5.11l5.95,4.28,25.57-7.67,23.02,2.56,13.62,2.56,18.74,14.51,5.11,5.95,3.39,5.95.84,5.11,3.39,5.95,6.84.84h18.74l5.11,2.56,4.28,4.28,4.28.84,14.51.84,3.39,5.11,3.39,11.95,6.84,3.39,5.95.84,19.62-4.28,36.64,36.64,1.72,8.51,4.28,13.62,1.72,10.23v5.95l-1.72,5.11-5.11,3.39-2.56,9.39-1.72,7.67,6.84,57.98v42.63l-5.95,27.29-20.46,18.74-57.09,41.75-23.02,11.06-27.29,6.84-5.11,3.39-27.29,28.13-17.9,23.85-98.05,70.76-13.62-9.39-8.51-11.95-6.84-21.29-2.56-52.86-9.39-29.85-39.19-35.8-27.29-.84-5.95-1.72-3.39-21.29,8.51-53.7,6.84-11.06,17.06-57.98,15.34-17.06-5.11-9.39-8.51-3.39-8.51-7.67-8.51-4.28-28.13-10.23-35.8-23.02-14.51-17.06-9.39-21.29,6.84-24.73,51.14-54.54,6.84-20.46-24.73-7.67-16.18-10.23-9.39-7.67-27.29-55.42-8.51-125.3-4.28-5.95-30.69-5.95-12.79-5.95-17.06-11.95-18.74-15.34-36.64-22.18-7.67-8.51-5.95-8.51-2.56-6.84-.84-7.67.84-9.39,2.56-15.34-.84-6.84-1.72-11.95.84-11.06-1.72-5.11-8.51-6.84-17.9-10.23-116.79-36.64-66.48-10.23-70.76,25.57h-.84v.15l-.08.02Z"/>
  <path id="HNSB" d="M1464.07,4205.11l27.29-44.31,6.84-39.19-8.51-15.34-15.34,1.72-21.29-2.56-17.9-10.23-19.62-33.24-7.67-8.51,35.8-60.53-25.57-15.34-33.24.84-15.34-22.18-3.39-2.56-13.62-5.95-11.06.84-13.62,13.62-12.79,20.46-19.62,16.18-9.39,3.39-23.02-28.97-34.08-56.26-27.29-72.48-57.98-9.39-9.39,5.11-44.31,13.62-43.47,8.51-7.67-2.56-7.67-5.11-4.28-7.67-2.56-7.67-2.56-5.95-3.39-11.95,16.18-41.75,12.79-44.31,1.72-23.02,11.06-24.73,29.85-26.41,3.39-9.39-.84-9.39-2.56-7.67-10.23-15.34-5.11-6.84-8.51-31.52,15.34-20.46-.84-4.28-2.56-5.95-10.23-6.84-20.46-9.39-25.57-27.29-23.02-26.41,2.56-17.9,1.72-7.67-.84-10.23-52.86-64.77-3.39-5.95,107.4-83.55,108.28-84.39,108.28-84.39,40.91-32.41h.84l70.76-25.57,66.48,10.23,116.79,36.64,17.9,10.23,8.51,6.84,1.72,5.11-.84,11.06,1.72,11.95.84,6.84-2.56,15.34-.84,9.39.84,7.67,2.56,6.84,5.95,8.51,7.67,8.51,36.64,22.18,18.74,15.34,17.06,11.95,12.79,5.95,30.69,5.95,4.28,5.95,8.51,125.3,27.29,55.42,9.39,7.67,16.18,10.23,24.73,7.67-6.84,20.46-51.14,54.54-6.84,24.73,9.39,21.29,14.51,17.06,35.8,23.02,28.13,10.23,8.51,4.28,8.51,7.67,8.51,3.39,5.11,9.39-15.34,17.06-17.06,57.98-6.84,11.06-8.51,53.7,3.39,21.29,5.95,1.72,27.29.84,39.19,35.8,9.39,29.85,2.56,52.86-1.72,56.26-43.47,8.51-38.36,39.19-6.84,5.11-13.62,5.95-6.84,5.95-2.56,9.39-.84,17.9,7.67,13.62,11.95,32.41-16.18,26.41-23.02,13.62-8.51,5.95-36.64-3.39-41.75-8.51-54.54,5.11-72.48,7.67-97.17-6.84h0l-.18.13.04.05Z"/>
  <path id="HNCP" d="M386.25,4114.03l-5.11-8.51-11.95-10.23-13.62-17.9-23.02-56.26-11.95-19.62-24.73-30.69-11.06-16.18-5.95-17.9,1.72-23.85,9.39-15.34,30.69-26.41,11.95-17.06,9.39-13.62,15.34-36.64v-34.08l-23.85-23.02,19.62-58.81,15.34-23.85,17.06-13.62,7.67-6.84,38.36-19.62,126.18-42.63,43.47-20.46,156.87-121.91,107.4-83.55,3.39,5.95,52.86,64.77.84,10.23-1.72,7.67-2.56,17.9,23.02,26.41,25.57,27.29,20.46,9.39,10.23,6.84,2.56,5.95.84,4.28-15.34,20.46,8.51,31.52,5.11,6.84,10.23,15.34,2.56,7.67.84,9.39-3.39,9.39-29.85,26.41-11.06,24.73-1.72,23.02-12.79,44.31-16.18,41.75,3.39,11.95,2.56,5.95,2.56,7.67,4.28,7.67,7.67,5.11,7.67,2.56,43.47-8.51,6.84,40.91-5.11,34.08-16.18,11.95,2.56,13.62-2.56,5.95-9.39,11.06-6.84,6.84-5.11,9.39-3.39,10.23-1.72,17.06.84,19.62,8.51,13.62,12.79,28.97,5.95,23.02v7.67l-.84,7.67-9.39.84-35.8,10.23-44.31,3.39-62.21-7.67-18.74,6.84-1.72,18.74v5.11l13.62,33.24,38.36,35.8,8.51,13.62,15.34,27.29,3.39,77.6-29.85,2.56-23.85-4.28h-10.23l-11.06,1.72-11.95,3.39-20.46,7.67-9.39,5.95-4.28,10.23.84,15.34v5.11l3.39,4.28.84,4.28-3.39,1.72-12.79,4.28-15.34-3.39-14.51-12.79-17.06-4.28-22.18-9.39-22.18-22.18-16.18-26.41-1.72-9.39.84-34.08-8.51-17.06-79.27-60.53-10.23-18.74-9.39-38.36-18.74-26.41-75.04-11.06-16.18,5.95-40.08,11.95-18.74,5.95h0l.08-.04h-.01Z"/>
  <path id="HNCL" d="M5765.74,3620.31l-74.16-87.83-40.91-38.36-173.89-76.71-21.29-12.79-71.6-88.66-66.48-98.05-44.31-35.8-135.53-51.98-127.02-109.96-100.61-54.54-26.41-5.95-10.23,5.95-12.79,4.28-9.39,2.56-12.79-5.11-7.67-7.67-8.51-3.39-6.84-.84-27.29,13.62,2.56,11.95-4.28,9.39-10.23,11.95-26.41,21.29-24.73,15.34-13.62-.84-14.51-9.39-8.51-2.56-8.51-1.72-8.51,3.39-5.11,7.67-30.69,49.42-75.88,74.16-71.6,39.19-5.11,7.67h-7.67l-9.39-4.28-10.23-2.56-11.95-.84-22.18,3.39-11.06,4.28-20.46,4.28-23.85,11.95-28.13,6.84-28.97-6.84-75.88-40.91-2.56-34.08-7.67-17.06-.84-6.84,7.67-57.09-2.56-17.9-3.39-10.23-3.39-3.39-5.95-.84-2.56,1.72-2.56,3.39-.84,1.72h-1.72l-1.72-1.72-3.39-1.72-2.56-1.72-4.28-.84-3.39-.84-3.39-2.56-4.28-5.11-3.39-3.39-3.39-1.72-3.39-1.72-2.56-.84-7.67.84-31.52-8.51-59.65,2.56-12.79-.84-5.95-2.56-2.56-5.11-14.51-17.06-37.52-29.85,27.29-16.18,29.85-11.95,11.95-11.95,5.11-16.18v-28.97l-2.56-29.85-2.56-4.28-4.28-4.28-8.51.84-4.28-.84-6.84-3.39-11.95-4.28-3.39-6.84-14.51-31.52-11.06-11.06-17.9-15.34-7.67-9.39-4.28-10.23-1.72-18.74-1.72-7.67-2.56-6.84-.84-4.28.84-3.39,2.56-.84h8.51v-11.06l28.97,18.74,18.74,5.11,30.69,1.72,24.73-3.39,20.46-10.23,118.51-73.32,30.69-34.96,13.62-11.06,43.47-17.9,42.63-10.23,178.16-6.84,15.34-4.28,12.79-5.95,48.59-35.8,25.57-28.97,11.95-31.52-20.46-26.41-78.44-11.06-37.52-9.39,5.95-14.51,32.41-3.39,96.34,19.62,66.48,12.79,46.03,5.11,58.81,17.06,58.81,15.34,19.62,3.39,14.51,6.84,2.56,14.51v17.9l3.39,14.51h9.39l-.84-9.39,2.56-3.39,3.39-2.56,3.39-2.56,20.46.84,11.06,16.18,22.18,17.9,25.57,19.62,55.42,23.02,93.78,25.57,64.77-5.95,92.94-9.39,133.86-3.39,71.6-30.69,90.38-65.65,59.65-35.8,94.61-2.56v1185.82h0l-.19-.23h.05Z"/>
  <path id="HNAT" d="M2257.72,2765.81l17.9-5.11,11.06-5.95,7.67-13.62.84-14.51-4.28-11.95-7.67-5.95-10.23,2.56-5.11-17.06-18.74-22.18v-13.62l6.84-11.06,19.62-20.46,8.51-12.79,11.06-31.52,7.67-11.95,13.62-12.79,11.95-7.67,6.84-11.95-3.39-30.69,7.67-2.56,22.18,2.56,20.46,7.67,55.42,33.24,21.29,1.72v-7.67l-12.79-12.79,12.79-14.51,43.47-26.41-23.85,32.41-8.51,20.46,10.23,8.51,6.84,9.39,116.79,105.73,37.52,16.18,40.08-7.67,6.84-7.67,12.79-20.46,5.11-5.95,12.79-1.72,31.52,1.72,6.84-5.11,7.67-22.18,18.74-11.06,24.73-2.56,127.86,29.85,112.52,39.19,115.07,12.79,132.13,30.69,44.31,3.39,47.75-5.11,75.88-22.18,22.18-4.28,3.39-3.39,21.29-16.18,4.28-2.56,6.84-5.95,15.34,5.95,15.34,8.51,5.95,4.28,52.86,4.28,242.97-21.29,40.91,1.72,38.36,15.34,2.56,1.72v11.06h-8.51l-2.56.84-.84,3.39.84,4.28,2.56,6.84,1.72,7.67,1.72,18.74,4.28,10.23,7.67,9.39,17.9,15.34,11.06,11.06,14.51,31.52,3.39,6.84,11.95,4.28,6.84,3.39,4.28.84,8.51-.84,4.28,4.28,2.56,4.28,2.56,29.85v28.97l-5.11,16.18-11.95,11.95-29.85,11.95-27.29,16.18-26.41-11.95-34.96-5.95-30.69,4.28-9.39,1.72-7.67,3.39-11.06,1.72-10.23-.84-13.62-5.11-11.95-1.72-45.19,2.56-45.19-12.79-21.29-3.39-14.51,2.56-26.41,9.39-26.41,11.06-51.14,28.97-31.52,11.06-27.29,6.84h-38.36l-18.74,1.72-23.02-5.11-15.34-20.46-88.66,23.85-56.26-1.72-22.18,4.28-46.87,40.91-20.46,23.02-11.95,9.39-22.18,12.79-80.99,29.85-37.52,26.41-12.79,11.06-5.95,4.28-51.14-.84-88.66-21.29h-12.79l-11.95-1.72-11.06-8.51-14.51-5.11-9.39-1.72-8.51,2.56-5.95,5.11-7.67,1.72-5.11,5.11-7.67,3.39-5.95,1.72-7.67-.84-6.84-1.72-17.9-9.39-11.06-6.84-7.67-5.95-9.39-11.95-7.67-13.62-6.84-32.41-.84-16.18-1.72-13.62-21.29-14.51-11.95-.84-5.95,2.56-48.59,27.29-17.9-1.72-52.86,13.62-55.42,5.11-18.74-8.51-49.42-55.42-4.28-5.95-3.39-7.67-6.84-40.08-1.72-18.74-11.06-45.19-13.62-23.85-20.46-11.06-91.22-63.09h0l-.18-.18-.04-.02Z"/>
  <path id="HNIB" d="M3332.32,2305.8l7.67,7.67-11.06,21.29,3.39,14.51-23.85-.84-18.74,5.11-34.08,13.62-28.97,17.06-18.74-14.51-23.02-8.51,10.23-14.51,55.42-27.29,32.41-6.84,17.9-3.39,17.06-4.28,14.51.84h0l-.14.05v.02ZM3670.75,2101.19l8.51-31.52,35.8-29.85,49.42-30.69,38.36-16.18,74.16-35.8,80.99-27.29,53.7-15.34,37.52-5.11,49.42,3.39,38.36,1.72,61.37.84-25.57,7.67-26.41,13.62-23.85-7.67-37.52,9.39-26.41-5.95-22.18,3.39-8.51,4.28-17.06,11.95-7.67,3.39h-11.06l-17.9,4.28-22.18,16.18-46.03,23.02-44.31,16.18-47.75,34.08-42.63,12.79-28.13,3.39-19.62,18.74-20.46,19.62-24.73,17.9-7.67-20.46h0l.04.04h0ZM4535.15,1871.88l19.62-34.96,13.62-17.9,41.75-18.74,23.02,8.51,18.74,16.18-5.95,15.34-27.29,3.39-6.84,18.74-16.18,22.18-24.73,1.72-16.18,18.74-63.93,42.63-5.11-11.06,12.79-23.02,17.06-32.41,19.62-9.39h0v.05h-.01Z"/>
  <path id="HNCM" d="M2143.88,4497.71l5.11-4.23.84-3.35.84-4.23-.84-4.23-9.39-17.69-40.08-50.55-14.51-13.46.84-12.64v-12.64l-5.11-5.05-7.67-6.76-29.85-14.34-9.39-8.41-8.51-15.16-2.56-8.41-.84-12.64-1.72-5.05-10.23-19.39-11.06-15.16-23.02-8.41-21.29-15.16-42.63-10.93-9.39-.83-11.95-4.23-6.84-2.53-17.06-23.57,16.18-26.1-11.95-32.03-7.67-13.46.84-17.69,2.56-9.28,6.84-5.88,13.62-5.88,6.84-5.05,38.36-38.73,43.47-8.41,1.72-55.61,6.84,21.04,8.51,11.81,13.62,9.28,98.05-69.94,17.9-23.57,27.29-27.8,5.11-3.35,27.29-6.76,23.02-10.93,57.09-41.26,20.46-18.52,5.95-26.97v-42.13l115.95-1.7,13.62,1.7,54.54-11.81,4.28-10.93,36.64-26.97,4.28-1.7,3.39-.83,5.95,1.7,7.67,3.35,16.18,10.93,9.39,9.28,12.79,19.39,4.28,10.93,3.39,15.99,2.56,5.88,2.56,4.23,5.95,5.88,5.95,4.23,11.95,4.23,5.11,2.53,5.11,7.58,6.84,3.35,3.39,7.58,1.72,5.88-.84,11.81v5.88l1.72,7.58,3.39,9.28,1.72,5.05,3.39,7.58v9.28l2.56,3.35,6.84,4.23,13.62,2.53h17.9l30.69-15.16,24.73-22.75,29.85,1.7,44.31,11.81,5.11,2.53,9.39,8.41,7.67,3.35,5.95-1.7,8.51-7.58,7.67,1.7,7.67,1.7,33.24,30.33,22.18,9.28,4.28,4.23,6.84,6.76,1.72,9.28,11.95,18.52-20.46,15.99-25.57,1.7-3.39,1.7-4.28,3.35-3.39,6.76-3.39,12.64-1.72,19.39,5.95,20.22,5.11,42.96-7.67,29.5-12.79,35.38-.84,5.05.84,1.7v2.53l-2.56,3.35-9.39,5.88-5.95,3.35-5.95,2.53-4.28.83-4.28,1.7-11.06,8.41-6.84,1.7-4.28.83-2.56,1.7-1.72,3.35-.84,8.41-1.72,3.35-4.28.83-2.56-1.7-1.72-1.7-1.72-1.7-1.72,1.7-.84,4.23,1.72,10.11.84,6.76v6.76l-4.28,17.69-18.74,32.85-13.62-.83-5.11-.83-5.11-1.7-4.28-1.7-1.72-2.53-.84-5.05-1.72-2.53h-11.95l-5.11-1.7-5.95-1.7-5.11-3.35-5.11-1.7-4.28-.83-4.28,2.53-2.56,5.05.84,19.39-.84,7.58-1.72,6.76-.84,5.88-11.06,23.57-63.93,62.36,4.28,19.39,2.56,10.11,5.11,11.81,6.84,9.28,19.62,12.64,28.97,26.1,4.28,4.23,1.72,5.88v12.64l-3.39,5.05-4.28,3.35,1.72,4.23,1.72,3.35,30.69,23.57,4.28,9.28-12.79,26.97-33.24,43.79-5.95,4.23-9.39,3.35-15.34-6.76-7.67-1.7h-5.11l-5.95,2.53-3.39,7.58-2.56,13.46,2.56,49.72,2.56,13.46,4.28,7.58,7.67,8.41,6.84,5.88,5.95,4.23,4.28,1.7,3.39,1.7,3.39,1.7,1.72,1.7,3.39,8.41,1.72,5.05v7.58l-5.11,8.41-8.51,5.05-33.24,6.76-23.85,15.16-13.62,26.97-.84,6.76-7.67,10.11-15.34,9.28-34.96,15.99-40.08,4.23h-7.67l-7.67,4.23-10.23,8.41-25.57,31.15-.84,26.1-44.31,4.23-16.18,11.81-32.41,31.15-.84-42.96-7.67-12.64-8.51-11.81-13.62-6.76-21.29-18.52-13.62-8.41-14.51-5.05-12.79-2.53-20.46-7.58-4.28-5.05-1.72-5.05,1.72-5.88,2.56-5.05,6.84-20.22-17.9-20.22-42.63-17.69-4.28-25.27,4.28-8.41,2.56-2.53h5.11l7.67,2.53,46.03-10.93,25.57,1.7,19.62-2.53,15.34-3.35,26.41-10.11,11.95-5.05,16.18-12.64,18.74,2.53,19.62-4.23,11.06-4.23,5.11-4.23,11.95-15.16,4.28-15.99-10.23-10.11,8.51-13.46-4.28-24.44-3.39-10.11-15.34-32.85-5.95-4.23-55.42,22.75-10.23-2.53-13.62-1.7-24.73-8.41-13.62-7.58-38.36-7.58-3.39-.83-11.06-12.64-1.72-2.53-48.59-13.46-17.06-17.69-12.79-18.52h0l-.09-.22h-.05Z"/>
  <path id="HNYO" d="M4195.8,3204.52l-56.26,40.08-15.34,5.95-69.04,41.75-32.41,16.18-16.18,1.72-29.85-.84-14.51-4.28-7.67-6.84-3.39-7.67-5.95-8.51-10.23-11.06-11.95-10.23-15.34-11.06-17.9-9.39-29.85-9.39h-13.62l-16.18,4.28-104.84,57.09-9.39,3.39h-6.84l-5.95-1.72-5.11-.84-5.95,5.11-5.11,7.67-11.95,32.41-10.23,11.95-7.67,18.74-12.79,3.39-12.79,9.39-7.67,4.28-9.39,2.56h-23.02l-13.62-2.56-10.23-2.56-38.36-31.52-57.98,12.79-2.56,10.23-11.06,8.51-4.28,1.72-17.9,9.39-8.51,2.56-5.11,3.39-4.28,5.11-4.28,17.9-.84,10.23,9.39,77.6-9.39,22.18-.84,3.39.84,5.11.84,5.11-2.56,7.67-9.39,13.62-5.11,11.95-2.56,8.51-1.72,8.51v8.51l-1.72,10.23-6.84,11.06-18.74,12.79-24.73,23.02-37.52,10.23-9.39-1.72-5.95-.84-7.67,5.11-4.28,4.28-17.9,31.52-41.75-9.39-66.48,3.39-18.74-5.95-10.23-5.11-14.51-2.56-11.95-.84-59.65,7.67-22.18,18.74.84,13.62-1.72,26.41-1.72,7.67-3.39,6.84-25.57,21.29-11.95,18.74-7.67,17.9-24.73,34.08-33.24-30.69-7.67-1.72-7.67-1.72-8.51,7.67-5.95,1.72-7.67-3.39-9.39-8.51-5.11-2.56-44.31-11.95-29.85-1.72-24.73,23.02-30.69,15.34h-17.9l-13.62-2.56-6.84-4.28-2.56-3.39v-9.39l-3.39-7.67-1.72-5.11-3.39-9.39-1.72-7.67v-5.95l.84-11.95-1.72-5.95-3.39-7.67-6.84-3.39-5.11-7.67-5.11-2.56-11.95-4.28-5.95-4.28-5.95-5.95-2.56-4.28-2.56-5.95-3.39-16.18-4.28-11.06-12.79-19.62-9.39-9.39-16.18-11.06-7.67-3.39-5.95-1.72-3.39.84-4.28,1.72-36.64,27.29-4.28,11.06-54.54,11.95-13.62-1.72-115.95,1.72-6.84-57.98,1.72-7.67,2.56-9.39,5.11-3.39,1.72-5.11v-5.95l-1.72-10.23-4.28-13.62-1.72-8.51-36.64-36.64-19.62,4.28-5.95-.84-6.84-3.39-3.39-11.95-3.39-5.11-14.51-.84-4.28-.84-4.28-4.28-5.11-2.56h-18.74l-6.84-.84-3.39-5.95-.84-5.11-3.39-5.95-5.11-5.95-18.74-14.51-13.62-2.56-23.02-2.56-25.57,7.67-5.95-4.28v-5.11l4.28-12.79-1.72-8.51,4.28-18.74v-15.34l-.84-1.72-3.39-1.72-7.67,3.39-4.28.84-5.95-9.39,11.06-18.74-2.56-13.62,3.39-8.51,1.72-8.51v-9.39l-1.72-8.51,14.51-15.34,3.39-5.95v-5.11l-1.72-4.28-.84-3.39,1.72-4.28,5.95-3.39,17.06-4.28,6.84-4.28,11.95-9.39,5.11-2.56,5.11-4.28,8.51-10.23,30.69-51.14,17.9-15.34,5.11-11.06-4.28-17.9-12.79-11.95-15.34-8.51-8.51-6.84,8.51-11.95h13.62l13.62,10.23,9.39,1.72,3.39-23.02-5.95-17.06-11.06-15.34-4.28-17.9,13.62-24.73,12.79-8.51,6.84-17.9,5.11-21.29,7.67-17.06,4.28.84,6.84,2.56,9.39.84,7.67-4.28-.84-4.28,9.39-33.24,2.56-4.28-18.74-29.85-32.41-26.41-20.46-23.02,17.9-21.29-22.18-5.11,6.84-11.95,37.52-25.57,91.22,63.09,20.46,11.06,13.62,23.85,11.06,45.19,1.72,18.74,6.84,40.08,3.39,7.67,4.28,5.95,49.42,55.42,18.74,8.51,55.42-5.11,52.86-13.62,17.9,1.72,48.59-27.29,5.95-2.56,11.95.84,21.29,14.51,1.72,13.62.84,16.18,6.84,32.41,7.67,13.62,9.39,11.95,7.67,5.95,11.06,6.84,17.9,9.39,6.84,1.72,7.67.84,5.95-1.72,7.67-3.39,5.11-5.11,7.67-1.72,5.95-5.11,8.51-2.56,9.39,1.72,14.51,5.11,11.06,8.51,11.95,1.72h12.79l88.66,21.29,51.14.84,5.95-4.28,12.79-11.06,37.52-26.41,80.99-29.85,22.18-12.79,11.95-9.39,20.46-23.02,46.87-40.91,22.18-4.28,56.26,1.72,88.66-23.85,15.34,20.46,23.02,5.11,18.74-1.72h38.36l27.29-6.84,31.52-11.06,51.14-28.97,26.41-11.06,26.41-9.39,14.51-2.56,21.29,3.39,45.19,12.79,45.19-2.56,11.95,1.72,13.62,5.11,10.23.84,11.06-1.72,7.67-3.39,9.39-1.72,30.69-4.28,34.96,5.95,26.41,11.95,37.52,29.85,14.51,17.06,2.56,5.11,5.95,2.56,12.79.84,59.65-2.56,31.52,8.51,7.67-.84,2.56.84,3.39,1.72,3.39,1.72,3.39,3.39,4.28,5.11,3.39,2.56,3.39.84,4.28.84,2.56,1.72,3.39,1.72,1.72,1.72h1.72l.84-1.72,2.56-3.39,2.56-1.72,5.95.84,3.39,3.39,3.39,10.23,2.56,17.9-7.67,57.09.84,6.84,7.67,17.06,2.56,34.08h0l.08.16h.04Z"/>
  <path id="HNFM" d="M2433.83,5247.77l34.96-44.31,9.39-29.85,3.39-5.11,3.39-8.51,9.39-45.19,2.56-24.73-23.02-167.94.84-26.41,25.57-31.52,10.23-8.51,7.67-4.28h7.67l40.08-4.28,34.96-16.18,15.34-9.39,7.67-10.23.84-6.84,13.62-27.29,23.85-15.34,33.24-6.84,8.51-5.11,5.11-8.51v-7.67l-1.72-5.11-3.39-8.51-1.72-1.72-3.39-1.72-3.39-1.72-4.28-1.72-5.95-4.28-6.84-5.95-7.67-8.51-4.28-7.67-2.56-13.62-2.56-50.31,2.56-13.62,3.39-7.67,5.95-2.56h5.11l7.67,1.72,15.34,6.84,9.39-3.39,5.95-4.28,33.24-44.31,12.79-27.29-4.28-9.39-30.69-23.85-1.72-3.39-1.72-4.28,4.28-3.39,3.39-5.11v-12.79l-1.72-5.95-4.28-4.28-28.97-26.41-19.62-12.79-6.84-9.39-5.11-11.95-2.56-10.23-4.28-19.62,63.93-63.09,11.06-23.85.84-5.95,1.72-6.84.84-7.67-.84-19.62,2.56-5.11,4.28-2.56,4.28.84,5.11,1.72,5.11,3.39,5.95,1.72,5.11,1.72h11.95l1.72,2.56.84,5.11,1.72,2.56,4.28,1.72,5.11,1.72,5.11.84,13.62.84,18.74-33.24,4.28-17.9v-6.84l-.84-6.84-1.72-10.23.84-4.28,1.72-1.72,1.72,1.72,1.72,1.72,2.56,1.72,4.28-.84,1.72-3.39.84-8.51,1.72-3.39,2.56-1.72,4.28-.84,6.84-1.72,11.06-8.51,4.28-1.72,4.28-.84,5.95-2.56,5.95-3.39,9.39-5.95,2.56-3.39v-2.56l-.84-1.72.84-5.11,12.79-35.8,7.67-29.85-5.11-43.47-5.95-20.46,1.72-19.62,3.39-12.79,3.39-6.84,4.28-3.39,3.39-1.72,25.57-1.72,20.46-16.18-11.95-18.74-1.72-9.39-6.84-6.84-4.28-4.28-22.18-9.39,24.73-34.08,7.67-17.9,11.95-18.74,25.57-21.29,3.39-6.84,1.72-7.67,1.72-26.41-.84-13.62,22.18-18.74,59.65-7.67,11.95.84,14.51,2.56,10.23,5.11,18.74,5.95,66.48-3.39,41.75,9.39,3.39,14.51,5.11,8.51,12.79,16.18,11.06,11.06,28.97,15.34,14.51,14.51,17.9,10.23,5.11,4.28,2.56,3.39-11.95,9.39-10.23,34.96-11.95,10.23,7.67,27.29,4.28,9.39,8.51,13.62,5.95,13.62,2.56,34.96,3.39,13.62,10.23,13.62,9.39,47.75,39.19,96.34,14.51,27.29,17.06,18.74,11.06,9.39,23.85,5.95,11.95,11.95,42.63,40.08,23.85,30.69-.84,23.02-5.11,20.46.84,11.06,3.39,11.95,12.79,20.46,4.28,9.39,2.56,18.74,3.39,17.9,16.18,43.47-.84,17.9-92.94,71.6-40.91,39.19-9.39,41.75-23.85,42.63-60.53,53.7-14.51,40.08-13.62,19.62-2.56,5.95,1.72,5.11,10.23,2.56,6.84,4.28,4.28,5.95,1.72,5.11-12.79,25.57-26.41,3.39-19.62-3.39h-17.06l-26.41,10.23,7.67,23.02,32.41,44.31,34.08,25.57,9.39,5.11,3.39,8.51,2.56,13.62-4.28,51.14-13.62,25.57-14.51,15.34-20.46,11.06-42.63-7.67,5.11,18.74.84,9.39-.84,10.23-5.95,12.79-3.39,17.06,1.72,24.73-5.11,58.81-23.02,58.81-21.29,27.29-5.95,4.28h-19.62l-29.85-5.11-10.23-5.11-28.13-25.57-18.74-8.51-8.51,10.23-1.72,4.28-2.56,10.23-.84,17.9.84,17.9,3.39,13.62,7.67,9.39,14.51,26.41-.84,20.46-9.39,13.62-9.39,20.46-3.39,22.18-.84,5.11-5.95-.84-58.81-25.57-39.19,12.79-61.37-22.18-42.63,5.11-12.79-5.95-14.51-7.67-50.31,5.95-17.06-16.18-23.85-23.02-2.56-17.06,9.39-21.29.84-5.11-5.11-1.72h-6.84l-5.95,1.72-13.62-3.39-14.51-4.28-24.73.84-13.62,4.28-3.39,14.51-3.39,33.24-6.84,28.13v17.9l5.11,17.06-9.39,5.95-12.79-4.28-32.41-20.46-44.31-33.24-3.39-4.28-5.95-4.28-4.28-1.72-23.02,2.56-38.36-7.67-50.31-34.08-9.39-15.34,2.56-55.42v-37.52h0l.15-.05.08.03Z"/>
</svg>