<?xml version="1.0" encoding="UTF-8"?>
<svg id="Capa_1" data-name="Capa 1" xmlns="http://www.w3.org/2000/svg" viewBox="0 0 1948.25 1339.14">
  <g>
    <path d="M5.31,1339.14l4.46-.02c-1.57-7-3.08-14.01-4.55-21.03l.09,21.05Z"/>
    <path d="M2.68,712.5c19.29-96.34,48.09-190.57,86.3-282.03C154.28,274.15,244.49,131.61,357.61,5.81l-8.49.04c-111.81,125.29-201.13,266.97-265.97,422.18-34.55,82.71-61.43,167.67-80.59,254.39l.13,30.07Z"/>
  </g>
  <path d="M4.42,1127.12c4.83,71.91,14.28,142.71,28.3,211.9l8.05-.03c-19.26-94.5-29.96-192.02-31.91-291.31-1.59-81.03,1.49-153.34,9.42-221.05,10.45-88.63,29.81-176.63,57.52-261.56,27.47-84.18,63.27-165.68,106.4-242.24,53.33-94.52,117.53-185.72,196.27-278.81,11.1-13.13,22.33-25.91,33.67-38.44l-10.72.04c-9.75,10.88-19.41,21.97-28.98,33.29-79.06,93.47-143.54,185.08-197.12,280.04-43.39,77.01-79.4,158.99-107.03,243.67-27.88,85.42-47.35,173.94-57.86,263.09-3.01,25.7-5.32,52.05-6.95,79.27l.93,222.14Z"/>
  <path d="M452.25,5.41c-22.08,24.42-43.71,50.13-64.98,77.24-56.34,71.78-129.09,168.27-192.07,278.18-86.88,152.09-141.05,325.59-156.64,501.75-6.73,77.51-5.3,153.5-3.01,217.61,3.18,88.85,12.51,175.38,27.84,258.7l8.02-.03c-15.42-83.37-24.79-169.99-27.97-258.95h0c-2.28-63.87-3.71-139.56,2.98-216.64,15.49-175.03,69.31-347.42,155.63-498.52,62.72-109.46,135.25-205.65,191.42-277.23,22.72-28.95,45.83-56.29,69.48-82.16l-10.71.04Z"/>
  <path d="M499.31,5.21c-33.3,36.29-65.6,76.17-97.87,120.71l-11.37,15.69c-59.59,82.15-121.21,167.1-175.68,260.7-87.01,150.18-138.36,322.08-148.5,497.12-3.98,71.72-.2,143.63,3.46,213.17,4.12,78.29,12.3,153.87,24.4,226.17l9.6-.04c-12.18-72.41-20.41-148.15-24.53-226.63-3.65-69.29-7.41-140.94-3.46-212.14,10.05-173.55,60.96-343.99,147.23-492.89,54.22-93.18,115.7-177.93,175.16-259.89l11.38-15.69c33.99-46.9,67.99-88.58,103.16-126.32l-12.96.05Z"/>
  <path d="M545.43,5.02c-44.35,46.53-86.09,99.89-129.2,164.68-18.89,28.4-38.77,57.21-57.99,85.08-41.45,60.1-84.31,122.24-124,189.4-43.31,73.7-77.39,153.85-101.29,238.23-23.63,83.4-36.73,168.83-38.95,253.93-1.3,56.82,2.84,112.57,7.22,171.59.91,12.24,1.83,24.58,2.7,37.05,4.8,68.39,11.82,132.68,21.18,193.67l9.59-.04c-9.43-61.14-16.5-125.64-21.31-194.29-.88-12.48-1.79-24.83-2.7-37.08-4.37-58.78-8.49-114.31-7.2-170.65,2.2-84.29,15.19-168.93,38.6-251.57,23.68-83.6,57.44-163.01,100.34-236,39.51-66.86,82.28-128.87,123.63-188.83,19.24-27.9,39.14-56.75,58.08-85.21,44.85-67.4,88.17-122.31,134.52-169.98l-13.21.06Z"/>
  <path d="M589.82,4.83c-70.9,69.42-120.12,143.38-159.47,208.24-25.94,42.75-53.48,83.65-82.63,126.96-31.23,46.38-63.51,94.34-94.28,145.61-86.38,144.91-133.3,318.07-132.1,487.62.52,47.83,5.33,94.3,10.41,143.5,2.04,19.7,4.14,40.08,5.97,60.65,5.12,57.74,11.17,111.07,18.32,161.09l11.16-.05c-7.21-50.25-13.32-103.89-18.47-162.02-1.83-20.65-3.94-41.07-5.98-60.81-5.06-48.94-9.84-95.16-10.35-142.46-1.18-167.54,45.18-338.67,130.54-481.85,30.61-51.01,62.82-98.85,93.96-145.11,29.23-43.42,56.84-84.42,82.91-127.4,40.49-66.73,91.5-143.17,166.01-214.04l-16,.07Z"/>
  <path d="M636.56,4.64c-3.54,3.1-7.06,6.23-10.56,9.4-78.79,71.63-129.29,148.89-180.87,242.86-28.88,52.61-61.8,102.01-96.65,154.32-24.75,37.14-50.33,75.54-75.17,116.3-43.5,71.92-76.35,150.9-97.65,234.74-20.97,82.57-29.79,166-26.19,247.96,1.84,41.88,7.41,82.24,13.3,124.98,3.33,24.16,6.78,49.13,9.53,74.63,4.77,44.19,9.91,87.01,15.66,128.56l11.16-.05c-5.82-41.89-11.01-85.09-15.82-129.7-2.77-25.66-6.23-50.72-9.57-74.96-5.86-42.47-11.4-82.59-13.21-123.95-3.55-80.88,5.15-163.23,25.86-244.75,21.03-82.78,53.46-160.75,96.39-231.72,24.71-40.55,50.24-78.86,74.92-115.9,34.99-52.51,68.04-102.1,97.15-155.13,51.05-93,100.96-169.4,178.62-240,6.62-6.01,13.34-11.89,20.15-17.65l-17.03.07Z"/>
  <path d="M686.97,4.43c-20.91,16-41.08,33.2-60.35,51.6-80.7,77.11-126.6,163.17-166.7,244.7-29.42,59.83-65.97,114.79-104.66,172.97-20.35,30.6-41.4,62.25-62.08,95.67-86.5,140.95-128.63,315.1-115.58,477.79,3.02,37.63,9.34,73.65,16.03,111.79,4.71,26.85,9.59,54.62,13.26,83.26,4.21,32.83,8.38,64.78,12.69,96.02l11.16-.05c-4.38-31.66-8.61-64.06-12.88-97.38-3.71-28.9-8.6-56.79-13.34-83.77-6.65-37.87-12.92-73.65-15.9-110.76-12.87-160.41,28.67-332.13,113.97-471.11,20.58-33.25,41.57-64.82,61.87-95.35,38.9-58.49,75.64-113.74,105.38-174.21,39.66-80.64,85.03-165.73,164.41-241.59,22.59-21.56,46.41-41.48,71.26-59.68l-18.55.08Z"/>
  <g>
    <path d="M745.91,4.18c-42.32,26.5-81.95,58.08-118.12,94.4-74.21,74.62-112.9,155.7-152.35,246.32-28.49,65.44-67.6,124.06-109.01,186.13-17.23,25.82-35.05,52.53-52.71,80.63-43.62,70.03-75.15,147.7-93.72,230.84-17.97,80.48-22.63,164-13.47,241.54,4.06,34.37,11.12,67.07,18.6,101.69,6.16,28.53,12.53,58.03,17.13,88.78,3.02,20.19,6.01,40.65,8.9,60.44.15,1.05.31,2.11.46,3.16l9.57-.04c-.22-1.5-.44-2.99-.66-4.49-2.89-19.79-5.88-40.26-8.9-60.47-4.64-31.06-11.05-60.71-17.24-89.38-7.43-34.39-14.45-66.87-18.45-100.8-9.04-76.49-4.44-158.92,13.31-238.37,18.34-82.1,49.46-158.77,92.51-227.88,17.58-27.98,35.36-54.63,52.56-80.4,41.65-62.43,80.99-121.39,109.82-187.6,39.06-89.72,77.34-169.97,150.38-243.41,39.42-39.58,83-73.47,129.72-101.16l-18.32.08Z"/>
    <path d="M1676.37.27c10.74,1.4,21.47,2.85,32.03,4.4,77.33,11.33,158.68,25.28,236.28,49.73l-.04-9.95c-66.93-20.84-136.41-34-203.67-44.45l-64.6.27Z"/>
  </g>
  <g>
    <path d="M819.99,3.87c-15.05,6.77-29.87,14.18-44.41,22.24-54.34,30.14-103.85,68.65-147.15,114.45-73.54,77.89-104.93,160.6-138.17,248.16-26.27,69.21-66.78,129.56-109.67,193.46-15.34,22.85-31.2,46.48-46.98,71.33-86.61,136.35-123.59,311.1-98.92,467.47,5.02,31.81,12.82,61.89,21.08,93.73,7.65,29.52,15.57,60.03,21.1,92.19h0c1.78,10.34,3.51,20.71,5.22,31.07l9.6-.04c-1.79-10.89-3.61-21.78-5.48-32.64-5.6-32.54-13.56-63.26-21.27-92.96-8.2-31.61-15.94-61.47-20.89-92.83-24.31-154.15,12.16-326.45,97.56-460.91,15.72-24.75,31.55-48.33,46.85-71.13,43.2-64.36,84.01-125.16,110.67-195.38,32.89-86.65,63.96-168.5,136.19-245.01,42.64-45.09,91.37-83,144.86-112.67,20.86-11.57,42.29-21.79,64.18-30.64l-24.37.1Z"/>
    <path d="M1638.78,44.78c-22.24-2.47-45.25-5.03-68.06-8.2-56.82-7.84-118.92-19.35-189.3-35.07l-41.07.17c7.18,1.76,14.41,3.5,21.7,5.17,77.84,17.81,145.67,30.61,207.37,39.12,22.94,3.19,46.01,5.75,68.32,8.23,16.8,1.87,34.16,3.8,51,5.95,89.44,11.43,176.71,24.92,256.18,50.53l-.04-10.02c-82.96-26.51-171.23-39.21-254.94-49.91-16.91-2.16-34.32-4.09-51.15-5.96Z"/>
  </g>
  <path d="M1670.01,106.99c-13.77-1.49-27.92-2.84-41.6-4.14-24.5-2.33-49.83-4.74-74.98-8.14-61.4-8.23-127.14-21.64-200.96-40.99-20.42-5.35-40.45-11.33-59.81-17.1-31.17-9.3-60.6-18.08-91.73-24.56-19.1-3.97-38.18-7.15-57.23-9.55l-177.87.75c-4.74.65-9.48,1.35-14.2,2.1-62.67,10.04-122.74,31.02-178.53,62.37-53.52,30.07-101.78,68.88-143.44,115.35-67.36,75.25-93.11,154.83-120.36,239.09l-3.44,10.64c-23.66,72.94-65.53,134.74-109.86,200.18-13.64,20.14-27.74,40.96-41.85,62.83-87.32,135.4-121.16,308.1-90.52,461.96,5.91,29.71,14.44,57.63,23.47,87.19,9.05,29.64,18.4,60.28,24.87,92.88l8.06-.03c-.01-.06-.02-.12-.04-.19-6.56-33.49-16.11-64.74-25.34-94.97-8.97-29.37-17.44-57.11-23.28-86.43-14.59-73.26-14.36-153.53.66-232.11,15.35-80.33,46.04-157.8,88.75-224.02,14.05-21.79,28.13-42.58,41.75-62.68,44.65-65.91,86.82-128.17,110.83-202.17l3.45-10.64c26.99-83.44,52.49-162.24,118.73-236.25,41.08-45.82,88.66-84.08,141.43-113.73,54.98-30.89,114.17-51.57,175.91-61.46,80.45-12.89,163.37-10.66,246.45,6.64,30.8,6.41,60.08,15.15,91.08,24.4,19.43,5.8,39.52,11.79,60.07,17.18,74.14,19.44,140.19,32.91,201.91,41.18,25.3,3.42,50.71,5.83,75.28,8.17,13.66,1.3,27.78,2.64,41.5,4.13,79.53,8.6,178.5,19.3,265.91,47.49,3.39,1.09,6.75,2.22,10.08,3.36l-.04-8.35c-2.53-.85-5.06-1.7-7.62-2.52-88.18-28.44-187.6-39.19-267.49-47.83Z"/>
  <path d="M291.77,1194.69c6.78,27.97,16.04,54.09,25.84,81.75,7.04,19.85,14.21,40.16,20.42,61.3l8.21-.03c-6.41-22.11-13.87-43.26-21.19-63.9-9.73-27.46-18.92-53.4-25.61-80.97-17.34-71.52-19.27-150.64-5.6-228.82,13.97-79.89,43.97-156.65,86.77-222.01,12.79-19.53,25.55-38.16,37.89-56.18,47.73-69.68,88.94-129.87,109.81-207.15,1.86-6.88,3.68-13.74,5.5-20.59,21.33-80.18,41.47-155.92,102.5-227.92,80.94-95.34,191.77-157.22,312.08-174.26,79.71-11.29,161.44-6.66,242.91,13.75,28.85,7.23,56.13,16.61,85.01,26.54,20.14,6.92,40.96,14.08,62.39,20.46,71.21,21.18,135.5,35.32,196.53,43.25,27.15,3.55,54.39,5.67,80.73,7.71,11.03.85,22.43,1.74,33.53,2.71l9.69.84c85.59,7.46,174.09,15.17,255.63,40.05,10.52,3.21,20.7,6.66,30.59,10.35l-.04-8.36c-89.97-32.85-191.23-41.69-285.5-49.9l-9.68-.84c-11.14-.97-22.56-1.86-33.61-2.72-26.24-2.03-53.38-4.14-80.32-7.67-60.61-7.87-124.49-21.93-195.3-42.99-21.27-6.33-42.01-13.46-62.07-20.36-29.04-9.99-56.48-19.42-85.65-26.73-54.05-13.54-108.21-20.22-161.86-20-28.2.12-56.27,2.15-84.09,6.09-122.23,17.31-234.8,80.16-317,176.97-62.18,73.36-82.55,149.93-104.11,231-1.82,6.84-3.64,13.69-5.49,20.56-20.51,75.99-61.38,135.66-108.7,204.75-12.36,18.05-25.15,36.72-37.98,56.32-43.38,66.24-73.79,144.04-87.94,224.97-13.86,79.24-11.88,159.48,5.71,232.04Z"/>
  <path d="M320.7,1231.39c7.61,26.45,18.05,52.16,28.16,77.02,3.91,9.62,7.86,19.34,11.7,29.23l6.76-.03c-4.13-10.7-8.39-21.2-12.61-31.58-10.5-25.85-20.42-50.27-27.94-76.39-20.1-69.86-24.21-147.96-11.87-225.86,12.59-79.54,41.95-155.72,84.89-220.3,11.84-17.8,23.61-34.78,35-51.2,48.52-69.96,90.42-130.38,107.69-210.36,2.07-9.56,4.08-19.25,6.02-28.62,16.14-77.75,31.38-151.19,87.97-221.82,78.02-97.2,187.17-158.86,307.34-173.63,78-9.59,160.89-2.36,239.7,20.89,27.23,8.04,52.82,18.07,79.92,28.7,20.53,8.05,41.76,16.37,63.75,23.73,68.54,22.95,131.02,37.76,190.99,45.29,28.53,3.62,57.16,5.29,84.84,6.9,8.99.53,17.95,1.05,26.85,1.63,7.8.51,15.67,1.01,23.57,1.51,97.34,6.19,202.6,12.88,292.18,50.53l-.03-6.92c-89.86-37.06-194.7-43.74-291.75-49.91-7.9-.5-15.76-1-23.56-1.51-8.92-.59-17.89-1.11-26.9-1.64-27.58-1.61-56.09-3.28-84.41-6.86-59.56-7.47-121.64-22.2-189.78-45.01-21.83-7.31-42.99-15.61-63.45-23.63-27.23-10.68-52.95-20.76-80.44-28.88-57.57-16.99-117.3-25.51-175.78-25.26-22.41.09-44.63,1.48-66.48,4.16-121.81,14.97-232.44,77.45-311.5,175.95-57.55,71.81-72.94,145.97-89.23,224.49-1.94,9.36-3.95,19.03-6.01,28.57-17.01,78.75-58.58,138.69-106.71,208.1-11.41,16.45-23.2,33.45-35.07,51.3-43.44,65.33-73.14,142.38-85.87,222.81-12.48,78.8-8.31,157.85,12.04,228.6Z"/>
  <path d="M348.86,1268.28c8,23.85,18.48,46.93,28.79,69.29l6.94-.03c-11.08-24.03-21.54-46.8-29.74-71.27-22.83-68.09-29.09-145.06-18.12-222.58,11.19-79.07,39.86-154.56,82.9-218.29,11.11-16.46,22.14-32.14,32.81-47.32,49.14-69.88,91.57-130.24,104.98-212.71,1.91-11.75,3.68-23.68,5.39-35.21,11.25-75.79,21.87-147.37,74.44-216.86,74.95-98.92,182.24-160.25,302.11-172.71,77.36-8.04,159.03,1.64,236.18,28.01,25.82,8.83,49.97,19.53,75.53,30.85,20.69,9.17,42.08,18.65,64.38,27,65.16,24.41,127.61,40.35,185.59,47.36,29.64,3.62,59.36,4.74,88.1,5.82,7.05.27,14.07.53,21.06.83,11.31.48,22.77.92,34.34,1.35,101.53,3.81,212.05,7.98,301.33,52.53l-.03-7.18c-89.8-43.74-199.85-47.87-301.07-51.67-11.56-.43-23.01-.86-34.31-1.35-7-.3-14.03-.56-21.09-.83-28.61-1.08-58.19-2.19-87.58-5.78-57.49-6.95-119.44-22.77-184.13-47.01-22.12-8.29-43.43-17.73-64.03-26.86-24.56-10.89-49.96-22.14-76.04-31.06-60.92-20.82-124.63-31.35-186.91-31.09-17.46.07-34.82,1-51.96,2.78-121.62,12.64-230.47,74.86-306.49,175.19-53.55,70.78-64.78,146.51-75.65,219.75-1.71,11.51-3.47,23.41-5.38,35.12-13.18,81.04-55.22,140.84-103.91,210.09-10.68,15.2-21.73,30.91-32.88,47.41-43.58,64.52-72.59,140.92-83.92,220.94-11.11,78.49-4.75,156.46,18.39,225.48Z"/>
  <path d="M377.03,1305.17c4.23,10.98,9.04,21.75,14.11,32.34l6.97-.03c-5.49-11.33-10.61-22.73-15.18-34.59-25.54-66.31-33.96-142.14-24.36-219.3,9.78-78.59,37.75-153.38,80.9-216.28,10.57-15.41,21.05-30.09,31.18-44.29,49.58-69.49,92.41-129.51,101.7-214.19,1.49-13.55,2.71-27.33,3.9-40.65,6.31-70.98,12.84-144.38,61.78-213.05,34.65-48.53,77.44-88.09,127.18-117.59,51.99-30.83,109.09-49.07,169.69-54.21,76.76-6.5,157.21,5.63,232.66,35.12,24.6,9.61,47.48,20.99,71.7,33.03,20.67,10.28,42.03,20.9,64.44,30.25,62.84,26.21,123.46,42.85,180.18,49.44,30.56,3.59,61.17,4.06,90.78,4.51,5.3.08,10.59.16,15.86.26,14,.26,27.95.39,42.72.53,107.17.99,224.74,2.1,312.89,57.49l-.03-7.59c-89.01-54.14-206.01-55.23-312.8-56.22-14.75-.14-28.69-.27-42.66-.53-5.28-.1-10.57-.18-15.88-.26-29.45-.45-59.9-.92-90.14-4.47-56.13-6.52-116.18-23.01-178.48-49-22.21-9.26-43.48-19.84-64.06-30.07-23.28-11.58-47.35-23.55-72.22-33.26-63.61-24.86-130.75-37.53-196.34-37.26-13.13.06-26.2.63-39.16,1.73-61.56,5.22-119.56,23.75-172.38,55.07-50.5,29.95-93.94,70.1-129.1,119.35-49.94,70.07-56.54,144.34-62.93,216.16-1.18,13.3-2.4,27.04-3.88,40.52-9.11,83.04-51.49,142.44-100.56,211.21-10.15,14.22-20.64,28.92-31.24,44.39-43.71,63.73-72.05,139.48-81.96,219.08-9.73,78.19-1.18,155.08,24.73,222.35Z"/>
  <path d="M404.1,1337.46l5.14-.02c-27.5-64.1-37.75-138.04-29.62-214.02,8.38-78.23,35.7-152.46,79.03-214.64,10.18-14.61,20.25-28.5,29.98-41.94,49.83-68.77,92.87-128.16,97.82-214.6.86-15.02,1.31-30.36,1.74-45.19,2.05-69.95,4.16-142.27,49.92-210.54,33.08-49.28,74.74-89.23,123.82-118.75,51.33-30.87,107.99-48.53,168.42-52.48,76.32-4.99,155.68,9.63,229.51,42.29,23.58,10.43,46.38,23.07,68.43,35.3,20.47,11.35,41.64,23.09,63.96,33.41,60.5,27.99,119.23,45.3,174.54,51.46,25.23,2.84,50.51,3.2,75.26,3.1,5.83-.02,11.64-.08,17.41-.12,3.79-.03,7.58-.07,11.35-.09,16.02-.11,32.12-.45,49.17-.81,114.47-2.42,241.24-5.08,326.39,67.3l-.03-6.31c-86.24-70.8-212.4-68.14-326.46-65.73-17.03.36-33.11.7-49.1.81-3.78.03-7.57.06-11.36.09-30.08.26-61.2.53-92.1-2.94-54.8-6.1-113.03-23.28-173.07-51.05-22.16-10.25-43.25-21.95-63.65-33.26-22.14-12.28-45.04-24.98-68.81-35.49-65.61-29.02-135.56-43.93-203.95-43.65-9.29.04-18.57.36-27.79.96-61.19,4-118.57,21.89-170.55,53.15-49.68,29.88-91.84,70.31-125.31,120.17-46.52,69.4-48.65,142.42-50.72,213.04-.43,14.8-.88,30.1-1.74,45.06-4.88,85.05-45.5,141.11-96.93,212.09-9.75,13.45-19.83,27.36-30.03,42.01-43.78,62.84-71.4,137.82-79.86,216.85-8.14,76.06,1.96,150.13,29.19,214.55Z"/>
  <path d="M416.92,1337.41l5.02-.02c-18.83-53.43-25.86-112.78-20.37-173.99,6.97-77.65,33.58-151.21,76.94-212.71,9.7-13.65,19.27-26.62,28.53-39.17,52.44-71.08,93.87-127.22,94.34-215.79.09-16.25-.42-32.91-.91-49.02-2.1-69.06-4.28-140.47,38.42-208.36,64.78-102.86,169.41-164.95,287.04-170.34,75.78-3.49,153.93,13.61,226.01,49.4,22.63,11.24,44.4,24.63,65.46,37.58,20.18,12.41,41.04,25.25,63.15,36.55,58.28,29.8,115.17,47.81,169.11,53.53,17.11,1.83,34.23,2.36,51.21,2.29,14.54-.06,28.97-.56,43.17-1.05l7.1-.24c17.51-.59,35.26-1.54,54.07-2.55,124.42-6.67,263.84-14.13,341.48,87.29l-.03-7.77c-79.62-98.3-218.01-90.89-341.71-84.26-18.78,1.01-36.51,1.96-53.97,2.55l-7.11.24c-30.62,1.06-62.28,2.16-93.71-1.21-53.35-5.66-109.69-23.51-167.45-53.04-21.95-11.22-42.73-24.01-62.83-36.37-21.14-13.01-43.01-26.46-65.83-37.79-67.19-33.36-139.63-50.63-210.6-50.33-5.92.02-11.84.17-17.74.44-119.21,5.46-225.21,68.35-290.84,172.55-43.46,69.12-41.27,141.26-39.14,211.03.49,16.07,1,32.68.91,48.85-.47,87.02-41.49,142.61-93.42,213-9.27,12.56-18.85,25.55-28.58,39.24-43.84,62.19-70.74,136.54-77.79,215.02-5.5,61.3,1.43,120.77,20.07,174.43Z"/>
  <path d="M431.1,1337.35l4.89-.02c-30.81-113.24-8.7-245.55,62.36-344.73,9.53-13.2,18.92-25.72,28-37.82,52.57-70.07,94.09-125.42,89.93-215.55-.8-17.29-2.4-35.08-3.95-52.29-6.16-68.37-12.53-139.07,27.31-206.75,61.66-104.63,164.39-166.39,281.84-169.44,75.28-1.98,152.22,17.59,222.52,56.52,21.81,12.08,42.66,26.25,62.83,39.96,19.78,13.44,40.22,27.33,62,39.61,56.08,31.61,111.15,50.33,163.68,55.61,13.06,1.33,26.12,1.78,39.13,1.73,19.07-.08,38.01-1.26,56.57-2.42l3.25-.2c18.55-1.16,37.56-2.83,57.69-4.6,133.47-11.76,284.75-25.08,349.1,112.78,3,6.43,5.96,13,8.86,19.53l-.05-11.69c-1.49-3.3-3-6.59-4.52-9.85-29.36-62.89-79.05-100.52-151.92-115.04-63.43-12.64-133.82-6.44-201.89-.45-20.09,1.77-39.07,3.44-57.57,4.59l-3.26.2c-31.02,1.94-63.1,3.94-94.93.71-51.87-5.22-106.32-23.74-161.83-55.03-21.6-12.18-41.97-26.02-61.66-39.4-20.26-13.77-41.2-28-63.2-40.18-68.33-37.84-142.88-57.55-216.2-57.24-2.91.01-5.83.06-8.74.13-119.11,3.1-223.28,65.71-285.8,171.77-40.61,68.99-34.17,140.47-27.94,209.58,1.55,17.16,3.14,34.89,3.94,52.08,4.08,88.42-36.99,143.17-88.99,212.48-9.09,12.12-18.5,24.66-28.05,37.9-71.62,99.95-94.06,233.2-63.4,347.52Z"/>
  <path d="M450.23,1337.27h3.24c-7.85-34.21-11.01-70.3-9.06-106.74,4.04-75.71,30-149.98,73.09-209.13,9.42-12.85,18.69-25.01,27.66-36.76,52.54-68.86,94.03-123.25,85.17-214.47-1.76-18.15-4.57-36.91-7.28-55.05-10.16-67.98-20.67-138.27,16.59-206.11,27.85-50.64,67.03-92.78,113.3-121.87,49.12-30.88,104.3-46.72,164.02-47.08h.66c74.72-.32,150.36,21.72,218.78,63.74,21.1,12.96,41.15,27.95,60.54,42.45,19.28,14.42,39.21,29.32,60.52,42.54,53.79,33.37,106.92,52.74,157.91,57.58,10.31.99,20.6,1.36,30.86,1.32,22.1-.09,44.01-2.12,65.42-4.1,19.22-1.78,39.14-4.26,60.22-6.89,65.79-8.19,133.81-16.66,194.53-6.04,69.13,12.09,115.44,47.76,141.59,109.05,4.03,9.45,7.95,19.22,11.74,28.67,8.42,20.97,17.02,42.39,27.8,62.87l-.03-6.97c-9.42-18.68-17.21-38.06-24.84-57.08-3.8-9.46-7.72-19.24-11.77-28.73-26.6-62.35-73.69-98.63-143.96-110.92-61.18-10.7-129.45-2.2-195.46,6.02-21.06,2.62-40.95,5.1-60.12,6.88-31.19,2.89-63.44,5.88-95.68,2.79-50.5-4.8-103.17-24.01-156.54-57.12-21.19-13.14-41.07-28.01-60.29-42.39-19.45-14.54-39.56-29.58-60.78-42.62-68.93-42.33-145.14-64.53-220.45-64.21h-.66c-60.31.36-116.05,16.37-165.68,47.57-46.73,29.38-86.28,71.92-114.39,123.03-37.78,68.78-27.19,139.6-16.94,208.1,2.71,18.1,5.51,36.82,7.26,54.89,8.74,89.99-32.42,143.95-84.54,212.25-8.98,11.77-18.26,23.93-27.7,36.82-43.45,59.64-69.62,134.51-73.69,210.82-1.95,36.48,1.18,72.62,8.98,106.91Z"/>
  <path d="M470.96,1337.18h3.21c-21.58-100.22-.08-212.32,63.07-297.57,9.36-12.58,18.56-24.43,27.46-35.9,52.57-67.73,94.09-121.22,80.42-213.71-2.79-18.91-6.89-38.52-10.85-57.49-14.11-67.58-28.69-137.47,6-205.36,26.25-51.32,64.19-93.83,109.72-122.92,48.38-30.91,103.03-46.09,162.43-45.16,93.87,1.19,169.25,39.2,215.96,70.87,20.43,13.86,39.75,29.7,58.43,45.03,18.72,15.36,38.09,31.24,58.84,45.39,51.62,35.18,102.91,55.25,152.45,59.66,8.18.73,16.41,1.02,24.6.99,24.62-.1,48.74-3.12,69.13-5.66,19.6-2.45,40.13-5.79,61.87-9.34,60.97-9.94,130.08-21.2,188.81-12.48,66.9,9.93,110.88,44.42,134.46,105.43,3.57,9.25,7.01,18.81,10.34,28.05,11.94,33.18,24.29,67.49,45.94,96.92,4.45,6.05,9.3,11.88,14.57,17.52l-.02-4.7c-4.29-4.75-8.3-9.65-12.01-14.69-21.38-29.07-33.65-63.16-45.51-96.12-3.33-9.26-6.78-18.84-10.37-28.12-24.02-62.17-68.81-97.3-136.94-107.42-59.21-8.79-128.58,2.51-189.78,12.49-21.71,3.54-42.21,6.88-61.75,9.32-27.01,3.37-60.63,7.57-93.05,4.67-49-4.36-99.78-24.25-150.95-59.12-20.64-14.07-39.95-29.91-58.62-45.22-18.73-15.37-38.11-31.26-58.66-45.2-67.49-45.76-142.77-70.46-217.69-71.41-2.22-.03-4.43-.05-6.63-.04-57.47.24-110.44,15.6-157.54,45.7-46,29.39-84.32,72.32-110.83,124.14-35.2,68.88-20.5,139.32-6.28,207.44,3.95,18.92,8.03,38.49,10.81,57.3,13.47,91.16-27.68,144.18-79.79,211.31-8.91,11.48-18.12,23.35-27.5,35.95-63.54,85.78-85.27,198.53-63.75,299.45Z"/>
  <path d="M492.22,1337.09h1.61c-4.78-24.05-7.06-48.94-6.66-74.19,1.16-74.86,25.73-147.86,69.2-205.56,9.33-12.35,18.5-23.95,27.36-35.16,52.46-66.42,93.9-118.88,75.42-212.17-3.87-19.54-9.07-38.98-14.58-59.56-18.05-67.44-36.71-137.17-4.36-205.46,51.75-109.14,151.83-171.8,267.72-167.65,93.27,3.14,167.28,44.23,212.93,78.15,19.75,14.79,38.35,31.46,56.32,47.58,18.18,16.3,36.99,33.16,57.17,48.26,49.32,36.9,98.64,57.62,146.58,61.58,6.6.55,13.19.78,19.79.75,23.59-.1,47.21-3.49,71.21-7.31,19.69-3.14,40.58-7.38,62.69-11.88,59.43-12.09,126.79-25.78,183.8-18.96,65.18,7.8,107.15,41.32,128.3,102.47,3.16,9.12,6.16,18.56,9.06,27.68,10.47,32.91,21.29,66.95,42.13,95.65,12.92,17.8,29.55,33.37,50.13,46.89v-1.89c-20.03-13.28-36.23-28.54-48.85-45.93-20.69-28.5-31.48-62.41-41.91-95.2-2.9-9.13-5.91-18.57-9.07-27.71-21.37-61.78-63.76-95.64-129.6-103.52-57.26-6.86-124.75,6.87-184.3,18.98-22.1,4.49-42.97,8.74-62.63,11.87-30.61,4.88-60.58,9.05-90.61,6.55-47.64-3.93-96.68-24.55-145.76-61.27-20.12-15.06-38.9-31.89-57.06-48.17-18-16.14-36.62-32.84-56.43-47.67-45.84-34.05-120.14-75.3-213.82-78.46-4.08-.15-8.13-.21-12.17-.19-111.34.47-206.83,62.86-257.03,168.74-32.6,68.82-13.86,138.84,4.26,206.55,5.5,20.56,10.7,39.98,14.56,59.46,8.44,42.61,5.04,79.1-10.7,114.84-14.42,32.74-37.59,62.08-64.42,96.05-8.87,11.22-18.03,22.83-27.38,35.19-43.67,57.96-68.36,131.3-69.52,206.49-.39,25.25,1.88,50.15,6.64,74.21Z"/>
  <path d="M512.88,1337.01h1.74c-3.73-19.86-5.68-40.29-5.76-61.02-.28-74.35,23.6-146.66,67.23-203.6,9.32-12.14,18.47-23.52,27.31-34.52,54.51-67.81,93.89-116.81,70.51-211.13-4.98-20.11-11.53-40.18-18.47-61.44-21.94-67.23-44.62-136.76-14.64-205.29,23.07-52.73,58.64-96.01,102.85-125.15,46.28-30.51,101.52-44.91,159.72-41.64,72.56,3.99,146.95,34.28,209.47,85.29,19.3,15.81,37.36,33.49,54.83,50.59,17.45,17.09,35.5,34.76,54.88,50.67,47.14,38.69,94.61,60.1,141.09,63.63,5.3.4,10.6.57,15.89.55,24.75-.1,49.27-4.45,72.54-9.01,19.57-3.84,40.59-9,62.85-14.47,57.96-14.25,123.65-30.4,178.96-25.5,63.31,5.61,103.15,38.03,121.8,99.11,2.77,9.06,5.35,18.43,7.84,27.48,8.99,32.63,18.29,66.36,38.35,94.37,19.09,26.66,48.02,47.88,86.27,63.38v-1.71c-37.68-15.36-66.18-36.31-84.99-62.59-19.89-27.78-29.15-61.38-38.11-93.87-2.5-9.07-5.08-18.45-7.86-27.53-18.86-61.77-59.15-94.55-123.18-100.22-55.57-4.92-121.4,11.26-179.48,25.54-22.24,5.47-43.24,10.63-62.77,14.46-28.13,5.51-58.1,10.71-88,8.43-46.15-3.51-93.32-24.79-140.21-63.28-19.33-15.87-37.35-33.51-54.77-50.58-17.49-17.12-35.57-34.83-54.93-50.69-62.78-51.22-137.49-81.64-210.38-85.64-5.85-.33-11.65-.48-17.43-.46-52.11.22-101.33,14.72-143.25,42.35-44.46,29.31-80.23,72.83-103.42,125.84-30.22,69.09-7.44,138.9,14.58,206.42,6.93,21.23,13.47,41.28,18.44,61.33,23.19,93.56-15.98,142.3-70.21,209.77-8.85,11.01-18,22.39-27.33,34.55-58.3,76.08-78.93,174.96-61.96,265.58Z"/>
  <path d="M529,1290.68c.37,15.66,1.85,31.11,4.39,46.24h1.6c-2.55-15.14-4.04-30.6-4.41-46.27-1.72-73.84,21.45-145.45,65.26-201.64,9.33-11.96,18.47-23.14,27.31-33.95,54.5-66.62,93.88-114.76,65.55-210.03-6.13-20.62-14.07-41.26-22.47-63.11-25.8-67.1-52.48-136.48-24.81-205.33,21.45-53.36,55.78-96.97,99.27-126.11,45.51-30.49,100.2-44.26,158.15-39.82,72.35,5.54,145.51,38.36,206.01,92.43,18.92,16.91,36.5,35.68,53.51,53.83,16.67,17.79,33.91,36.19,52.41,52.85,44.97,40.49,90.59,62.59,135.59,65.69,4.2.29,8.41.41,12.61.4,25.68-.11,51.03-5.51,73.26-10.74,19.25-4.53,40.2-10.61,62.38-17.05,81.46-23.65,173.8-50.45,234.39-16.18,27.33,15.46,45.54,41.59,55.67,79.89,2.39,9.05,4.57,18.41,6.68,27.45,7.51,32.28,15.28,65.66,34.52,92.93,24.13,34.21,65.29,57.75,122.38,70.07v-1.62c-56.52-12.25-97.23-35.56-121.09-69.36-19.06-27.02-26.8-60.25-34.28-92.38-2.11-9.06-4.29-18.43-6.69-27.5-10.1-38.19-29.08-65.39-56.42-80.86-61.17-34.6-153.84-7.7-235.6,16.04-22.16,6.43-43.09,12.51-62.3,17.03-25.74,6.06-55.7,12.36-85.39,10.31-44.65-3.08-89.95-25.04-134.65-65.29-18.45-16.61-35.66-34.99-52.31-52.76-17.03-18.18-34.64-36.98-53.61-53.93-60.75-54.29-134.25-87.26-206.94-92.83-7.53-.58-15-.85-22.41-.82-49.96.21-96.85,14.17-136.75,40.9-43.76,29.32-78.29,73.18-99.86,126.84-27.9,69.42-1.11,139.1,24.8,206.48,8.39,21.83,16.32,42.44,22.43,63,28.09,94.47-11.06,142.33-65.26,208.58-8.85,10.81-17.99,22-27.34,33.97-44.03,56.47-67.33,128.44-65.59,202.64Z"/>
  <path d="M2.05,561c14.91-49.02,32.33-97.39,52.23-145.04C116.87,266.14,201.78,128.67,307.34,6.02l-8.35.04C194.65,128.15,110.59,264.78,48.45,413.53c-17.39,41.63-32.89,83.82-46.49,126.5l.09,20.97Z"/>
  <path d="M1.55,441.78c5.29-13.71,10.75-27.38,16.43-40.98C77.81,257.59,157.54,125.39,255.75,6.24l-6.17.03C152.22,124.98,73.1,256.55,13.6,398.98c-4.15,9.94-8.17,19.92-12.11,29.91l.05,12.89Z"/>
  <path d="M1.12,340.59C55.4,220.92,123.55,109.14,204.79,6.45l-6.05.03C120.4,105.98,54.27,213.94,1.07,329.3l.05,11.3Z"/>
  <path d="M.73,246.77C44.33,162.41,94.96,82.23,152.35,6.67l-3.97.02C92.7,80.23,43.38,158.12.7,239.96l.03,6.81Z"/>
  <path d="M.73,246.77C44.33,162.41,94.96,82.23,152.35,6.67l-3.97.02C92.7,80.23,43.38,158.12.7,239.96l.03,6.81Z"/>
  <path d="M.37,161.1c19.01-33.02,39.1-65.41,60.26-97.03,12.92-19.32,26.29-38.37,40.02-57.18l-3.93.02c-13.28,18.23-26.2,36.7-38.72,55.41C37.81,92.49,18.58,123.37.34,154.82l.03,6.28Z"/>
  <path d="M.02,79.27c8.25-13.06,16.65-26.03,25.23-38.86,7.48-11.19,15.11-22.29,22.86-33.31l-3.86.02c-7.32,10.44-14.54,20.95-21.63,31.54C14.95,50.14,7.41,61.71,0,73.38l.02,5.9Z"/>
</svg>