<?xml version="1.0" encoding="UTF-8"?>
<svg id="Capa_1" xmlns="http://www.w3.org/2000/svg" version="1.1" viewBox="0 0 1821.23 988.14">
  <!-- Generator: Adobe Illustrator 29.5.1, SVG Export Plug-In . SVG Version: 2.1.0 Build 141)  -->
  <path d="M7.83,86.9c3.41,0,6.28-2.19,7.35-5.23h1119.37l71.25-71.24h223.39c1.08,3.04,3.95,5.22,7.35,5.22,4.32,0,7.83-3.5,7.83-7.83S1440.86-.01,1436.54-.01c-3.41,0-6.28,2.19-7.35,5.23h-225.54l-71.25,71.24H15.18c-1.08-3.04-3.95-5.22-7.35-5.22C3.51,71.24,0,74.75,0,79.07s3.51,7.83,7.83,7.83Z"/>
  <path d="M7.83,132.24c3.41,0,6.27-2.19,7.35-5.22h1192.78l60.23-60.22c2.91,1.38,6.46.94,8.86-1.47,3.06-3.06,3.06-8.01,0-11.07-3.06-3.06-8.01-3.06-11.07,0-2.4,2.4-2.85,5.95-1.47,8.86l-58.7,58.7H15.18c-1.08-3.04-3.95-5.23-7.35-5.23C3.51,116.59,0,120.1,0,124.42s3.51,7.83,7.83,7.83h0Z"/>
  <path d="M7.83,177.58c3.41,0,6.28-2.19,7.35-5.23h1259.71l53.31,53.31c-1.38,2.91-.93,6.45,1.47,8.86,3.06,3.06,8.01,3.06,11.07,0,3.06-3.06,3.06-8.01,0-11.07-2.41-2.41-5.96-2.85-8.86-1.47l-54.83-54.84H15.18c-1.08-3.04-3.95-5.22-7.35-5.22C3.51,161.92,0,165.43,0,169.75s3.51,7.83,7.83,7.83h0Z"/>
  <path d="M7.83,222.92c3.41,0,6.27-2.19,7.35-5.22h1229.48l87.43,87.44h191.07l82.36-82.36c2.9,1.38,6.45.94,8.86-1.47,3.06-3.06,3.06-8.02,0-11.07-3.06-3.06-8.02-3.06-11.07,0-2.4,2.41-2.85,5.95-1.47,8.86l-80.83,80.83h-186.76l-87.43-87.44H15.18c-1.08-3.04-3.95-5.23-7.35-5.23C3.51,207.26,0,210.77,0,215.09s3.51,7.83,7.83,7.83h0Z"/>
  <path d="M7.83,287.69c3.41,0,6.28-2.19,7.35-5.23h1205.73l71.25,71.25h250.44l71.25-71.25h46.34c1.08,3.04,3.95,5.23,7.35,5.23,4.32,0,7.83-3.51,7.83-7.83s-3.51-7.83-7.83-7.83c-3.41,0-6.27,2.19-7.35,5.22h-48.5l-71.25,71.25h-246.13l-71.25-71.25H15.18c-1.08-3.03-3.95-5.22-7.35-5.22C3.51,272.03,0,275.54,0,279.86s3.51,7.83,7.83,7.83Z"/>
  <path d="M7.83,352.46c3.41,0,6.28-2.19,7.35-5.23h1194.93l46.43,46.43h141.4l37.33,37.32c-1.38,2.91-.93,6.46,1.47,8.86,3.06,3.06,8.02,3.05,11.07,0,3.06-3.06,3.06-8.02,0-11.07-2.41-2.4-5.95-2.85-8.86-1.47l-38.85-38.84h-141.4l-46.43-46.43H15.18c-1.08-3.04-3.95-5.22-7.35-5.22C3.51,336.81,0,340.32,0,344.64s3.51,7.83,7.83,7.83h0Z"/>
  <path d="M7.83,417.23c3.41,0,6.27-2.19,7.35-5.23h1151.76l44.26,44.28h153.21c1.08,3.04,3.95,5.22,7.35,5.22,4.32,0,7.83-3.5,7.83-7.83s-3.51-7.83-7.83-7.83c-3.41,0-6.28,2.19-7.35,5.23h-151.05l-44.26-44.28H15.18c-1.08-3.04-3.95-5.23-7.35-5.23C3.51,401.56,0,405.07,0,409.39s3.51,7.83,7.83,7.83h0Z"/>
  <path d="M7.83,482c3.41,0,6.27-2.19,7.35-5.22h1036.18c1.08,3.04,3.95,5.22,7.35,5.22,4.32,0,7.83-3.51,7.83-7.83s-3.51-7.83-7.83-7.83c-3.41,0-6.28,2.19-7.35,5.23H15.18c-1.08-3.04-3.95-5.23-7.35-5.23C3.51,466.34,0,469.85,0,474.17s3.51,7.83,7.83,7.83Z"/>
  <path d="M7.83,533.82c3.4,0,6.27-2.19,7.35-5.22h1210.04l27.85-27.86c2.91,1.38,6.46.93,8.86-1.47,3.06-3.06,3.06-8.02,0-11.07-3.06-3.06-8.02-3.06-11.07,0-2.4,2.4-2.85,5.95-1.47,8.86l-26.33,26.34H15.18c-1.08-3.04-3.95-5.23-7.35-5.23C3.51,518.17,0,521.68,0,526s3.51,7.83,7.83,7.83h0Z"/>
  <path d="M7.83,585.63c3.41,0,6.27-2.19,7.35-5.23h1257.55l74.49-74.49h171.64l19.75-19.74c2.91,1.38,6.46.94,8.86-1.47,3.06-3.06,3.06-8.02,0-11.07-3.06-3.06-8.01-3.06-11.07,0-2.4,2.4-2.85,5.95-1.47,8.86l-18.23,18.22h-171.64l-74.49,74.49H15.18c-1.08-3.04-3.95-5.23-7.35-5.23C3.51,569.97,0,573.48,0,577.8s3.51,7.83,7.83,7.83h0Z"/>
  <path d="M7.83,637.45c3.41,0,6.28-2.19,7.35-5.23h1276.97l82.04-82.02h187.84l49.64,49.64h70.11c1.08,3.04,3.95,5.23,7.35,5.23,4.32,0,7.83-3.51,7.83-7.83s-3.51-7.83-7.83-7.83c-3.41,0-6.27,2.19-7.35,5.22h-67.96l-49.64-49.64h-192.15l-82.04,82.02H15.18c-1.08-3.03-3.95-5.22-7.35-5.22C3.51,621.79,0,625.3,0,629.62s3.51,7.83,7.83,7.83Z"/>
  <path d="M7.83,689.26c3.41,0,6.27-2.19,7.35-5.23h1276.97l80.95-80.96h158.69l14.99,14.98c-1.38,2.91-.93,6.46,1.47,8.86,3.06,3.06,8.02,3.05,11.07,0,3.06-3.06,3.05-8.02,0-11.07-2.4-2.4-5.95-2.84-8.86-1.47l-16.51-16.5h-163l-80.95,80.96H15.18c-1.08-3.04-3.95-5.22-7.35-5.22C3.51,673.61,0,677.11,0,681.44s3.51,7.83,7.83,7.83h0Z"/>
  <path d="M1818.94,708.14c-2.4-2.41-5.95-2.85-8.86-1.47l-34.31-34.31h-364.86l-58.29,58.29H15.18c-1.08-3.04-3.95-5.23-7.35-5.23C3.51,725.42,0,728.92,0,733.25s3.51,7.83,7.83,7.83c3.41,0,6.27-2.19,7.35-5.22h1339.59l58.29-58.29h360.55l32.79,32.79c-1.38,2.91-.93,6.45,1.47,8.86,3.06,3.06,8.01,3.06,11.07,0,3.06-3.06,3.06-8.01,0-11.07h0Z"/>
  <path d="M1720.49,737.97l-13.8-13.8h-170.56l-58.29,58.29H15.18c-1.08-3.04-3.95-5.22-7.35-5.22C3.51,777.24,0,780.75,0,785.07s3.51,7.83,7.83,7.83c3.41,0,6.28-2.19,7.35-5.23h1464.81l58.29-58.29h166.25l12.28,12.27c-1.38,2.91-.93,6.45,1.47,8.86,3.06,3.06,8.02,3.05,11.07,0,3.06-3.06,3.05-8.01,0-11.07-2.41-2.41-5.96-2.85-8.86-1.47h0Z"/>
  <path d="M1668.08,827.72c-2.4,2.4-2.85,5.95-1.47,8.86l-59.24,59.23h-104.73l-61.52-61.53H15.18c-1.08-3.04-3.95-5.23-7.35-5.23C3.51,829.05,0,832.55,0,836.88s3.51,7.83,7.83,7.83c3.41,0,6.27-2.19,7.35-5.23h1423.79l61.52,61.53h109.04l60.76-60.75c2.91,1.38,6.46.94,8.86-1.47,3.06-3.06,3.06-8.02,0-11.07-3.06-3.06-8.01-3.06-11.07,0h0Z"/>
  <path d="M1487.32,973.31l-87.22-87.21H15.18c-1.08-3.04-3.95-5.23-7.35-5.23C3.51,880.87,0,884.37,0,888.7s3.51,7.83,7.83,7.83c3.4,0,6.27-2.19,7.35-5.22h1382.77l85.69,85.69c-1.38,2.91-.94,6.46,1.47,8.86,3.06,3.06,8.01,3.06,11.07,0,3.06-3.06,3.06-8.01,0-11.07-2.4-2.4-5.95-2.85-8.86-1.47h0Z"/>
</svg>