<?xml version="1.0" encoding="UTF-8"?>
<svg id="Capa_1" xmlns="http://www.w3.org/2000/svg" version="1.1" viewBox="0 0 108 107">
  <!-- Generator: Adobe Illustrator 29.6.1, SVG Export Plug-In . SVG Version: 2.1.1 Build 9)  -->
  <path d="M27.6,102.56v-6.9c3.6-.4,5.8-2.5,5.8-10.8l-.3-76.3h18.6c19.6,0,23.2,9.1,23.2,27.1,0,3.5-.2,6.5-.6,9.2,0,.2,0,.3-.1.5-.3,1.6-.6,3-1,4.4-.1.3-.2.7-.3,1-1.3,3.8-3.4,6.6-6.3,8.6-.1,0-.1.1-.2.1-.3.2-.7.4-1,.6-.3.2-.6.3-.9.5-.2.1-.4.2-.7.3-.3.2-.7.3-1.1.4-.3.1-.6.2-.8.3-.1.1-.2.1-.4.1-.2.1-.4.1-.6.2-.6.2-1.2.3-1.9.5h-.1c-.4.1-.8.2-1.3.2h-.3c-.2,0-.3.1-.5.1s-.5.1-.7.1c-1.4.2-2.9.3-4.6.4h-3.1l-.1,17.7c0,19.7-3.6,21.5-20.1,21.5h-.6v.2ZM48.6,49.66h1.8c5.7,0,8.5-3.6,8.5-11.1v-5.2c0-8.6-4.7-10.4-8.6-10.4h-1.6s-.1,26.7-.1,26.7Z" fill="#eab215"/>
  <path d="M51.7,9.06c19.2,0,22.7,9,22.7,26.6,0,3.4-.2,6.4-.6,9.1,0,.2,0,.3-.1.5-.2,1.5-.6,3-1,4.3-.1.3-.2.6-.3,1-1.3,3.7-3.3,6.5-6.1,8.4l-.2.2c-.3.2-.6.4-1,.6-.3.2-.5.3-.8.4l-.6.3c-.3.2-.7.3-1.1.4-.3.1-.5.2-.8.3-.1,0-.2.1-.3.1-.2.1-.4.1-.6.2-.6.2-1.2.3-1.8.5h-.1c-.4.1-.8.2-1.3.2h-.3c-.1,0-.3,0-.4.1-.2,0-.5.1-.7.1-1.4.2-2.9.3-4.6.4h-3.5v1l-.1,17.2c0,10.1-1,15.1-3.7,17.8-2.8,2.8-7.7,3.3-15.9,3.3h-.2v-5.9c3.5-.6,5.8-3,5.8-11.2l-.5-75.9h18.1M48.1,50.16h2.3c5.9,0,9-3.9,9-11.6v-5.2c0-9-4.9-10.9-9.1-10.9h-2.1v1l-.1,25.7v1M51.7,8.06h-19.1l.2,76.9c0,8.9-2.6,10.1-5.8,10.3v7.8h1.2c16.9,0,20.6-2.2,20.6-22l.1-17.2h2.6c1.6-.1,3.2-.2,4.7-.4.2,0,.5-.1.7-.1s.3,0,.5-.1h.3c.5-.1.9-.2,1.3-.3.7-.2,1.3-.3,1.9-.5.2-.1.4-.1.6-.2.1,0,.2-.1.4-.1l.9-.3c.4-.1.7-.3,1.1-.5.2-.1.5-.2.7-.3.3-.1.6-.3.9-.5.4-.2.7-.4,1-.6.1-.1.2-.1.3-.2,2.9-2,5.1-4.9,6.4-8.9.1-.3.2-.7.3-1,.4-1.4.8-2.8,1-4.4,0-.2.1-.3.1-.5.4-2.7.6-5.8.6-9.2.2-18.7-4-27.7-23.5-27.7ZM49.1,49.16l.1-25.7h1.2c5.4,0,8.1,3.5,8.1,9.9v5.2c0,7.9-3.1,10.6-8,10.6,0,0-1.4,0-1.4,0Z" fill="#fff"/>
  <path d="M87.9,101.96v-38.4h-13v38.3h-15.7v-36.7c9.4-2.2,15-5.9,17.7-18.7l11,.1V8.56h15.7v93.4h-15.7Z" fill="#1f1760"/>
  <path d="M103.1,9.06v92.4h-14.7v-38.4h-14v38.4h-14.7v-35.9c9-2.2,14.9-6.1,17.6-18.6l10.1.1h1V9.06h14.7M104.1,8.06h-16.7v38l-10.9-.1c-2.6,12.6-7.9,16.5-17.8,18.8v37.7h16.7v-38.4h12v38.4h16.7V8.06Z" fill="#fff"/>
  <g>
    <path d="M25.1,102.56c-16.5,0-20.7-2.7-20.7-22.5V8.56h15.6l-.3,75.5c0,7.7,1.5,11,5.3,11.6v6.9h.1Z" fill="#1f1760"/>
    <path d="M19.6,9.06l-.3,75c0,7.7,1.5,11.2,5.3,12.1v6c-7.5,0-12.8-.7-15.7-3.8-2.8-2.9-3.9-8-3.9-18.3V9.06h14.6M20.6,8.06H3.9v72c0,19.9,4.1,23.1,21.5,23.1h.2v-7.8c-3.3-.3-5.3-2.6-5.3-11.2l.3-76.1Z" fill="#fff"/>
  </g>
</svg>